<svg xmlns="http://www.w3.org/2000/svg" viewBox="0 0 48 64" width="48" height="64" role="img" aria-label="Amphora"><g fill="none" stroke="currentColor" stroke-width="1.5" stroke-linecap="round" stroke-linejoin="round"><path d="M 17 6 H 31"/><path d="M 19 6 V 12 C 19 15 15 17 15 22 C 15 34 12 38 12 44 C 12 53 17 58 24 58 C 31 58 36 53 36 44 C 36 38 33 34 33 22 C 33 17 29 15 29 12 V 6"/><path d="M 19 12 C 12 13 9 17 10 21 C 10.8 24 13 25 15 24.5"/><path d="M 29 12 C 36 13 39 17 38 21 C 37.2 24 35 25 33 24.5"/><path d="M 18 58 H 30"/></g></svg>
