<svg xmlns="http://www.w3.org/2000/svg" viewBox="0 0 1200 300" role="img" aria-label="ENGYE — the bonded broker">
  <title>ENGYE — hire an AI that stakes its own USDC on its work</title>
  <defs>
    <pattern id="meander-d" width="9.7" height="9" patternUnits="userSpaceOnUse">
      <path d="M0 11 H10 V2 H3 V6.5 H6.5 V11 M10 11 H14" transform="scale(0.6929)" fill="none" stroke="#484541" stroke-width="1.8"/>
    </pattern>
  </defs>
  <rect width="1200" height="300" fill="#1B1815"/>
  <rect x="0" y="14" width="1200" height="9" fill="url(#meander-d)"/>
  <rect x="0" y="277" width="1200" height="9" fill="url(#meander-d)"/>

  <!-- the obol — the coin flips with the theme, like the site's toggle -->
  <g transform="translate(569 42)">
    <circle cx="31" cy="31" r="31" fill="#EAE7E0"/>
    <g fill="none" stroke="#1B1815" stroke-width="2.4">
      <circle cx="31" cy="31" r="29"/>
      <path d="M 18 26 Q 24.5 21 31 26 M 31 26 Q 37.5 21 44 26" stroke-width="2"/>
      <circle cx="24.5" cy="30" r="5" stroke-width="2"/>
      <circle cx="37.5" cy="30" r="5" stroke-width="2"/>
    </g>
    <circle cx="24.5" cy="30" r="1.8" fill="#1B1815"/>
    <circle cx="37.5" cy="30" r="1.8" fill="#1B1815"/>
    <path d="M 28.5 36 L 33.5 36 L 31 41 Z" fill="#1B1815"/>
  </g>

  <!-- ENGYE — Cinzel, outlined -->
  <g transform="translate(448.39799999999997 185)" fill="#EAE7E0" stroke="#EAE7E0" stroke-width="0.8">
    <path d="M7.854-46.200L17.754-46.200L17.754 0L7.854 0L7.854-46.200M17.556-2.838L35.178-2.838L36.762 0L17.556 0L17.556-2.838M17.556-24.156L32.736-24.156L32.736-21.384L17.556-21.384L17.556-24.156M17.556-46.200L35.970-46.200L35.970-43.362L17.556-43.362L17.556-46.200M39.336-13.530L39.996-13.530L36.960 0L24.024 0L26.400-2.838Q29.700-2.838 32.208-4.125Q34.716-5.412 36.498-7.821Q38.280-10.230 39.336-13.530M26.466-21.516L32.736-21.516L32.736-15.180L32.076-15.180L32.076-15.708Q32.076-18.150 30.492-19.734Q28.908-21.318 26.466-21.384L26.466-21.516M32.076-30.360L32.736-30.360L32.736-24.024L26.466-24.024L26.466-24.156Q28.908-24.222 30.492-25.839Q32.076-27.456 32.076-29.898L32.076-30.360M28.578-43.560L35.970-43.560L35.970-35.838L35.310-35.838L35.310-36.630Q35.310-39.666 33.495-41.514Q31.680-43.362 28.578-43.428L28.578-43.560M35.970-47.388L35.970-45.474L27.918-46.200Q29.370-46.200 30.987-46.398Q32.604-46.596 33.990-46.860Q35.376-47.124 35.970-47.388M7.854-4.818L8.052-4.818L8.052 0L2.772 0L2.772-0.660Q2.772-0.660 3.201-0.660Q3.630-0.660 3.630-0.660Q5.346-0.660 6.567-1.881Q7.788-3.102 7.854-4.818M8.052-46.200L8.052-41.382L7.854-41.382Q7.788-43.098 6.567-44.319Q5.346-45.540 3.630-45.540Q3.630-45.540 3.201-45.540Q2.772-45.540 2.772-45.540L2.772-46.200M65.208-39.138L64.416-47.190L106.524-7.062L107.316 0.924L65.208-39.138M64.548-4.686L64.746-4.686L64.746 0L59.268 0L59.268-0.660Q59.268-0.660 59.862-0.660Q60.456-0.660 60.522-0.660Q62.172-0.660 63.360-1.848Q64.548-3.036 64.548-4.686M73.788-4.686L73.986-4.686Q73.986-3.036 75.174-1.848Q76.362-0.660 78.012-0.660Q78.078-0.660 78.672-0.660Q79.266-0.660 79.266-0.660L79.266 0L73.788 0L73.788-4.686M63.756-47.190L64.416-47.190L73.920-37.092L73.986 0L64.548 0L64.548-38.940Q64.548-42.636 64.152-44.913Q63.756-47.190 63.756-47.190M97.746-46.200L107.118-46.200L107.118-7.524Q107.118-5.082 107.316-3.135Q107.514-1.188 107.712-0.132Q107.910 0.924 107.910 0.924L107.316 0.924L97.746-9.768L97.746-46.200M106.920-46.200L112.398-46.200L112.398-45.540Q112.398-45.540 111.804-45.540Q111.210-45.540 111.210-45.540Q109.560-45.540 108.372-44.385Q107.184-43.230 107.118-41.514L106.920-41.514L106.920-46.200M92.400-45.540L92.400-46.200L97.878-46.200L97.878-41.514L97.746-41.514Q97.680-43.230 96.525-44.385Q95.370-45.540 93.654-45.540Q93.654-45.540 93.060-45.540Q92.466-45.540 92.400-45.540M178.926-18.480L178.926-7.590Q177.342-5.610 174.207-3.630Q171.072-1.650 166.716-0.363Q162.360 0.924 157.014 0.924Q149.490 0.924 143.880-2.013Q138.270-4.950 135.168-10.362Q132.066-15.774 132.066-23.166Q132.066-30.558 135.135-35.904Q138.204-41.250 143.913-44.187Q149.622-47.124 157.410-47.124Q161.040-47.124 164.472-46.629Q167.904-46.134 170.808-45.342Q173.712-44.550 175.626-43.494L175.758-32.208L175.164-32.208Q173.910-36.696 171.534-39.369Q169.158-42.042 166.023-43.197Q162.888-44.352 159.390-44.352Q154.044-44.352 150.315-41.745Q146.586-39.138 144.705-34.320Q142.824-29.502 142.824-22.770Q142.824-16.434 144.573-11.715Q146.322-6.996 149.688-4.455Q153.054-1.914 157.872-1.848Q160.314-1.848 162.591-2.607Q164.868-3.366 166.584-4.818Q168.300-6.270 169.026-8.382L169.092-18.480Q169.092-21.450 165.726-21.450L164.670-21.450L164.670-22.110L183.216-22.110L183.216-21.450L182.226-21.450Q178.794-21.450 178.926-18.480M202.092-46.134L213.378-46.134L226.908-21.582L217.536-20.658L202.092-46.134M217.338-21.252L227.238-21.252L227.238 0L217.338 0L217.338-21.252M223.212-20.592L237.864-46.134L243.012-46.134L226.578-19.932L223.212-20.592M240.240-41.646L235.158-41.448Q235.752-42.372 235.488-43.329Q235.224-44.286 234.498-44.913Q233.772-45.540 232.848-45.540Q232.848-45.540 232.452-45.540Q232.056-45.540 232.056-45.540L232.056-46.200L247.830-46.200L247.830-45.540L246.906-45.540Q244.860-45.540 243.045-44.352Q241.230-43.164 240.240-41.646M215.952-41.448L204.798-41.646Q203.874-43.164 202.092-44.352Q200.310-45.540 198.198-45.540L197.274-45.540L197.274-46.200L219.120-46.200L219.120-45.540Q219.120-45.540 218.691-45.540Q218.262-45.540 218.262-45.540Q216.810-45.540 216.051-44.187Q215.292-42.834 215.952-41.448M217.338-4.818L217.536-4.818L217.536 0L212.256 0L212.256-0.660Q212.256-0.660 212.652-0.660Q213.048-0.660 213.114-0.660Q214.830-0.660 216.051-1.881Q217.272-3.102 217.338-4.818M227.040 0L227.040-4.818L227.238-4.818Q227.238-3.102 228.492-1.881Q229.746-0.660 231.462-0.660Q231.462-0.660 231.858-0.660Q232.254-0.660 232.254-0.660L232.254 0M269.346-46.200L279.246-46.200L279.246 0L269.346 0L269.346-46.200M279.048-2.838L296.670-2.838L298.254 0L279.048 0L279.048-2.838M279.048-24.156L294.228-24.156L294.228-21.384L279.048-21.384L279.048-24.156M279.048-46.200L297.462-46.200L297.462-43.362L279.048-43.362L279.048-46.200M300.828-13.530L301.488-13.530L298.452 0L285.516 0L287.892-2.838Q291.192-2.838 293.700-4.125Q296.208-5.412 297.990-7.821Q299.772-10.230 300.828-13.530M287.958-21.516L294.228-21.516L294.228-15.180L293.568-15.180L293.568-15.708Q293.568-18.150 291.984-19.734Q290.400-21.318 287.958-21.384L287.958-21.516M293.568-30.360L294.228-30.360L294.228-24.024L287.958-24.024L287.958-24.156Q290.400-24.222 291.984-25.839Q293.568-27.456 293.568-29.898L293.568-30.360M290.070-43.560L297.462-43.560L297.462-35.838L296.802-35.838L296.802-36.630Q296.802-39.666 294.987-41.514Q293.172-43.362 290.070-43.428L290.070-43.560M297.462-47.388L297.462-45.474L289.410-46.200Q290.862-46.200 292.479-46.398Q294.096-46.596 295.482-46.860Q296.868-47.124 297.462-47.388M269.346-4.818L269.544-4.818L269.544 0L264.264 0L264.264-0.660Q264.264-0.660 264.693-0.660Q265.122-0.660 265.122-0.660Q266.838-0.660 268.059-1.881Q269.280-3.102 269.346-4.818M269.544-46.200L269.544-41.382L269.346-41.382Q269.280-43.098 268.059-44.319Q266.838-45.540 265.122-45.540Q265.122-45.540 264.693-45.540Q264.264-45.540 264.264-45.540L264.264-46.200"/>
  </g>

  <!-- ledger rule -->
  <line x1="400" y1="209" x2="800" y2="209" stroke="#383329" stroke-width="1"/>
  <rect x="597" y="206" width="6" height="6" transform="rotate(45 600 209)" fill="#93A58C"/>

  <!-- ἐγγύη — EB Garamond italic -->
  <g transform="translate(389.0095 240)" fill="#9D968A">
    <path d="M2.461 0.322Q1.909 0.322 1.369 0.069Q0.828-0.184 0.483-0.610Q0.138-1.035 0.138-1.541Q0.138-2.139 0.449-2.645Q0.759-3.151 1.208-3.565Q1.656-3.979 2.070-4.209Q2.254-4.324 2.312-4.439Q2.369-4.554 2.208-4.646Q1.909-4.853 1.645-5.163Q1.380-5.474 1.380-5.842Q1.380-6.578 1.817-7.256Q2.254-7.935 2.990-8.487Q3.726-9.039 4.669-9.361Q5.612-9.683 6.624-9.683Q7.130-9.683 7.463-9.488Q7.797-9.292 7.797-9.016Q7.797-8.763 7.659-8.498Q7.521-8.234 7.303-8.050Q7.084-7.866 6.854-7.866Q6.693-7.866 6.452-7.901Q6.210-7.935 6.003-7.912Q5.106-7.912 4.335-7.567Q3.565-7.222 3.105-6.693Q2.645-6.164 2.645-5.589Q2.645-5.336 2.760-5.163Q2.875-4.991 3.105-4.991Q3.404-5.221 3.956-5.497Q4.508-5.773 5.072-5.980Q5.635-6.187 6.003-6.187Q6.302-6.187 6.497-5.992Q6.693-5.796 6.693-5.612Q6.693-5.313 6.417-4.945Q6.141-4.577 5.784-4.324Q5.428-4.071 5.152-4.071Q4.738-4.071 4.301-4.071Q3.864-4.071 3.427-4.094Q2.990-3.933 2.553-3.657Q2.116-3.381 1.840-3.070Q1.564-2.760 1.564-2.484Q1.564-2.139 1.909-1.875Q2.254-1.610 2.921-1.610Q3.611-1.610 4.209-1.805Q4.807-2.001 5.290-2.243Q5.773-2.484 6.083-2.679Q6.394-2.875 6.463-2.875Q6.693-2.875 6.693-2.553Q6.693-2.231 6.371-1.748Q6.049-1.265 5.474-0.793Q4.899-0.322 4.140 0Q3.381 0.322 2.461 0.322M4.945-10.488Q4.554-10.488 4.554-10.718Q4.554-10.971 4.968-11.109Q5.681-11.316 6.233-11.707Q6.785-12.098 6.785-12.604Q6.785-12.926 6.624-13.098Q6.463-13.271 6.210-13.386Q5.957-13.501 5.784-13.697Q5.612-13.892 5.612-14.191Q5.612-14.628 6.003-14.927Q6.394-15.226 7.015-15.226Q7.682-15.226 8.038-14.835Q8.395-14.444 8.395-13.777Q8.395-13.064 8.050-12.466Q7.705-11.868 7.176-11.431Q6.647-10.994 6.049-10.741Q5.451-10.488 4.945-10.488M9.292 6.670Q9.016 6.670 8.717 6.428Q8.418 6.187 8.223 5.842Q8.027 5.497 8.027 5.175Q8.027 5.014 8.107 4.784Q8.188 4.554 8.326 4.313Q8.464 4.071 8.636 3.829Q8.809 3.588 8.947 3.393Q9.085 3.197 9.200 3.059Q9.890 2.047 10.384 1.254Q10.879 0.460 11.339-0.276Q11.661-0.805 11.880-1.518Q12.098-2.231 12.224-3.002Q12.351-3.772 12.374-4.416Q12.397-5.911 11.914-6.681Q11.431-7.452 10.511-7.452Q10.028-7.452 9.591-7.268Q9.154-7.084 8.855-6.785Q8.740-6.693 8.682-6.670Q8.625-6.647 8.579-6.647Q8.487-6.647 8.429-6.681Q8.372-6.716 8.372-6.877Q8.372-7.268 8.614-7.739Q8.855-8.211 9.258-8.659Q9.660-9.108 10.200-9.396Q10.741-9.683 11.362-9.683Q12.374-9.683 12.949-8.889Q13.524-8.096 13.524-6.578Q13.524-5.727 13.374-4.703Q13.225-3.680 12.903-2.507Q12.857-2.254 12.983-2.243Q13.110-2.231 13.225-2.392Q13.777-3.128 14.444-4.117Q15.111-5.106 15.790-6.152Q16.468-7.199 17.020-8.107Q17.572-9.016 17.871-9.545Q17.963-9.729 18.112-9.855Q18.262-9.982 18.446-9.982Q18.676-9.982 18.849-9.717Q19.021-9.453 19.102-9.085Q19.182-8.717 19.182-8.395Q19.182-8.211 19.113-8.015Q19.044-7.820 18.837-7.567Q18.308-6.877 17.767-6.256Q17.227-5.635 16.537-4.853Q15.847-4.071 14.961-3.047Q14.076-2.024 12.857-0.552Q12.696-0.345 12.546-0.103Q12.397 0.138 12.351 0.207Q12.282 0.414 12.063 1Q11.845 1.587 11.569 2.357Q11.293 3.128 11.017 3.887Q10.741 4.646 10.522 5.210Q10.304 5.773 10.235 5.934Q10.074 6.279 9.809 6.474Q9.545 6.670 9.292 6.670M19.642 6.670Q19.366 6.670 19.067 6.428Q18.768 6.187 18.572 5.842Q18.377 5.497 18.377 5.175Q18.377 5.014 18.457 4.784Q18.538 4.554 18.676 4.313Q18.814 4.071 18.986 3.829Q19.159 3.588 19.297 3.393Q19.435 3.197 19.550 3.059Q20.240 2.047 20.735 1.254Q21.229 0.460 21.689-0.276Q22.011-0.805 22.229-1.518Q22.448-2.231 22.575-3.002Q22.701-3.772 22.724-4.416Q22.747-5.911 22.264-6.681Q21.781-7.452 20.861-7.452Q20.378-7.452 19.941-7.268Q19.504-7.084 19.205-6.785Q19.090-6.693 19.032-6.670Q18.975-6.647 18.929-6.647Q18.837-6.647 18.779-6.681Q18.722-6.716 18.722-6.877Q18.722-7.268 18.963-7.739Q19.205-8.211 19.607-8.659Q20.010-9.108 20.550-9.396Q21.091-9.683 21.712-9.683Q22.724-9.683 23.299-8.889Q23.874-8.096 23.874-6.578Q23.874-5.727 23.724-4.703Q23.575-3.680 23.253-2.507Q23.207-2.254 23.334-2.243Q23.460-2.231 23.575-2.392Q24.127-3.128 24.794-4.117Q25.461-5.106 26.139-6.152Q26.818-7.199 27.370-8.107Q27.922-9.016 28.221-9.545Q28.313-9.729 28.462-9.855Q28.612-9.982 28.796-9.982Q29.026-9.982 29.198-9.717Q29.371-9.453 29.451-9.085Q29.532-8.717 29.532-8.395Q29.532-8.211 29.463-8.015Q29.394-7.820 29.187-7.567Q28.658-6.877 28.117-6.256Q27.577-5.635 26.887-4.853Q26.197-4.071 25.311-3.047Q24.426-2.024 23.207-0.552Q23.046-0.345 22.896-0.103Q22.747 0.138 22.701 0.207Q22.632 0.414 22.413 1Q22.195 1.587 21.919 2.357Q21.643 3.128 21.367 3.887Q21.091 4.646 20.872 5.210Q20.654 5.773 20.585 5.934Q20.424 6.279 20.159 6.474Q19.895 6.670 19.642 6.670M31.878 0.322Q31.211 0.322 30.682-0.092Q30.153-0.506 29.900-1.046Q29.647-1.587 29.762-1.978Q29.877-2.392 30.153-2.944Q30.429-3.496 30.762-4.106Q31.096-4.715 31.384-5.267Q31.671-5.819 31.809-6.187Q32.108-6.923 31.970-7.348Q31.832-7.774 31.280-7.774Q30.912-7.774 30.636-7.625Q30.360-7.475 30.199-7.325Q30.038-7.176 29.946-7.176Q29.808-7.176 29.774-7.234Q29.739-7.291 29.785-7.452Q29.900-7.843 30.383-8.372Q30.866-8.901 31.544-9.292Q32.223-9.683 32.890-9.683Q33.304-9.683 33.557-9.476Q33.810-9.269 33.902-8.958Q33.994-8.648 33.879-8.303Q33.718-7.889 33.361-7.187Q33.005-6.486 32.580-5.715Q32.154-4.945 31.797-4.278Q31.441-3.611 31.326-3.243Q31.119-2.553 31.464-2.151Q31.809-1.748 32.545-1.748Q33.465-1.748 34.305-2.357Q35.144-2.967 35.788-3.967Q36.432-4.968 36.823-6.106Q37.214-7.245 37.214-8.280Q37.214-8.763 37.122-9.073Q37.030-9.384 37.007-9.614Q37.007-9.729 37.122-9.809Q37.237-9.890 37.306-9.890Q37.628-9.890 37.927-9.637Q38.226-9.384 38.433-8.912Q38.640-8.441 38.640-7.843Q38.640-6.716 38.261-5.566Q37.881-4.416 37.214-3.358Q36.547-2.300 35.696-1.472Q34.845-0.644 33.867-0.161Q32.890 0.322 31.878 0.322M35.535-10.580Q35.351-10.580 35.340-10.741Q35.328-10.902 35.351-11.017Q35.420-11.247 35.639-11.730Q35.857-12.213 36.145-12.788Q36.432-13.363 36.708-13.869Q36.984-14.375 37.122-14.674Q37.260-14.904 37.398-15.053Q37.536-15.203 37.720-15.203Q37.904-15.203 38.145-15.030Q38.387-14.858 38.571-14.628Q38.755-14.398 38.755-14.237Q38.755-14.145 38.444-13.742Q38.134-13.340 37.697-12.788Q37.260-12.236 36.834-11.730Q36.409-11.224 36.133-10.948Q36.018-10.810 35.857-10.695Q35.696-10.580 35.535-10.580M43.562 6.555Q43.033 6.555 42.596 6.152Q42.159 5.750 42.159 5.313Q42.159 5.014 42.274 4.830Q42.389 4.646 42.596 4.232Q42.734 4.002 42.998 3.462Q43.263 2.921 43.620 2.208Q43.976 1.495 44.355 0.725Q44.735-0.046 45.080-0.793Q45.425-1.541 45.701-2.162Q45.977-2.783 46.138-3.128Q46.253-3.427 46.437-3.818Q46.621-4.209 46.816-4.635Q47.012-5.060 47.207-5.474Q47.403-5.888 47.564-6.256Q47.725-6.624 47.828-6.865Q47.932-7.107 47.932-7.153Q47.955-7.429 47.852-7.601Q47.748-7.774 47.495-7.774Q47.150-7.774 46.506-7.245Q45.862-6.716 45.023-5.773Q44.183-4.830 43.274-3.576Q42.366-2.323 41.469-0.851Q41.331-0.598 41.136-0.322Q40.940-0.046 40.745 0.138Q40.549 0.322 40.365 0.322Q40.089 0.322 39.744 0.092Q39.399-0.138 39.514-0.506Q39.652-0.920 40.032-1.564Q40.411-2.208 40.733-2.829Q40.986-3.289 41.251-3.829Q41.515-4.370 41.722-4.945Q41.929-5.520 42.078-5.992Q42.228-6.463 42.228-6.762Q42.228-7.659 41.400-7.659Q40.825-7.659 40.492-7.417Q40.158-7.176 40.043-7.176Q39.928-7.176 39.893-7.222Q39.859-7.268 39.859-7.406Q39.859-7.682 40.123-8.062Q40.388-8.441 40.813-8.809Q41.239-9.177 41.710-9.430Q42.182-9.683 42.573-9.683Q43.010-9.683 43.332-9.418Q43.654-9.154 43.654-8.648Q43.654-8.165 43.459-7.475Q43.263-6.785 42.975-6.061Q42.688-5.336 42.366-4.692Q42.343-4.623 42.366-4.566Q42.389-4.508 42.435-4.508Q42.573-4.508 42.734-4.761Q43.516-5.957 44.298-6.865Q45.080-7.774 45.793-8.406Q46.506-9.039 47.058-9.361Q47.610-9.683 47.955-9.683Q48.369-9.683 48.737-9.200Q49.105-8.717 49.105-8.073Q49.105-7.774 49.025-7.360Q48.944-6.946 48.829-6.601Q47.932-3.634 46.782-0.632Q45.632 2.369 44.620 5.290Q44.436 5.842 44.172 6.199Q43.907 6.555 43.562 6.555M73.876-4.232L55.821-4.232Q55.706-4.232 55.637-4.324Q55.568-4.416 55.591-4.508Q55.637-4.646 55.752-4.888Q55.867-5.129 56.051-5.324Q56.235-5.520 56.442-5.520L74.589-5.520Q74.750-5.520 74.831-5.417Q74.911-5.313 74.842-5.175Q74.704-4.876 74.451-4.554Q74.198-4.232 73.876-4.232M82.271 0.322Q82.041 0.322 81.776 0.138Q81.512-0.046 81.340-0.287Q81.167-0.529 81.167-0.713Q81.167-1.035 81.248-1.276Q81.328-1.518 81.466-1.886L83.651-7.912Q83.720-8.142 83.628-8.223Q83.536-8.303 83.398-8.303L82.432-8.349Q82.087-8.372 82.018-8.498Q81.949-8.625 81.949-8.717Q81.949-8.763 82.076-8.912Q82.202-9.062 82.409-9.211Q82.616-9.361 82.846-9.361L83.789-9.361Q84.065-9.361 84.169-9.453Q84.272-9.545 84.410-9.821L84.985-11.017Q85.123-11.247 85.388-11.523Q85.652-11.799 85.951-11.995Q86.250-12.190 86.411-12.190Q86.664-12.190 86.733-11.902Q86.802-11.615 86.710-11.339L86.135-9.729Q86.066-9.499 86.147-9.441Q86.227-9.384 86.434-9.384Q86.848-9.384 87.285-9.315Q87.722-9.246 88.067-9.200Q88.481-9.131 88.573-9.039Q88.665-8.947 88.665-8.809Q88.665-8.763 88.561-8.636Q88.458-8.510 88.159-8.487Q87.722-8.464 87.320-8.429Q86.917-8.395 86.434-8.372Q86.043-8.349 85.871-8.257Q85.698-8.165 85.629-7.981L83.697-2.645Q83.582-2.300 83.582-2.082Q83.582-1.863 83.697-1.771Q83.812-1.679 84.019-1.679Q84.341-1.679 84.732-1.932Q85.123-2.185 85.502-2.518Q85.882-2.852 86.135-3.105Q86.319-3.289 86.457-3.277Q86.595-3.266 86.595-3.174Q86.641-3.059 86.584-2.886Q86.526-2.714 86.411-2.530Q86.135-2.162 85.744-1.760Q85.353-1.357 84.882-0.978Q84.410-0.598 83.927-0.310Q83.444-0.023 83.019 0.150Q82.593 0.322 82.271 0.322M89.516 0.391Q89.378 0.391 89.217 0.276Q89.056 0.161 88.941-0.011Q88.826-0.184 88.826-0.391Q88.826-0.759 88.907-1.115Q88.987-1.472 89.125-1.955L92.322-12.673Q92.437-13.064 92.541-13.489Q92.644-13.915 92.644-14.168Q92.644-14.421 92.357-14.547Q92.069-14.674 91.770-14.766Q91.609-14.835 91.471-14.893Q91.333-14.950 91.333-15.065Q91.333-15.157 91.425-15.249Q91.517-15.341 91.816-15.456Q92.023-15.525 92.426-15.663Q92.828-15.801 93.288-15.939Q93.748-16.077 94.128-16.169Q94.507-16.261 94.645-16.261Q94.783-16.261 94.944-16.238Q95.105-16.215 95.105-16.008Q95.105-15.778 95.059-15.617Q95.013-15.456 94.967-15.272L91.816-4.830Q91.770-4.669 91.839-4.669Q91.908-4.669 91.977-4.761Q92.920-6.210 93.967-7.348Q95.013-8.487 95.991-9.143Q96.968-9.798 97.727-9.798Q98.555-9.798 98.981-9.258Q99.406-8.717 99.406-7.981Q99.406-6.808 99.015-5.566Q98.624-4.324 97.992-3.197Q97.359-2.070 96.623-1.242Q96.462-1.081 96.129-0.816Q95.795-0.552 95.358-0.299Q94.921-0.046 94.496 0.138Q94.070 0.322 93.771 0.322Q93.564 0.322 93.311 0.173Q93.058 0.023 92.874-0.207Q92.690-0.437 92.690-0.598Q92.690-0.713 92.794-0.908Q92.897-1.104 93.058-1.265Q93.219-1.426 93.380-1.426Q93.587-1.426 93.737-1.334Q93.886-1.242 94.001-1.104Q94.162-0.966 94.312-0.862Q94.461-0.759 94.668-0.759Q94.990-0.759 95.370-1.219Q95.749-1.679 96.106-2.438Q96.462-3.197 96.738-4.094Q97.014-4.991 97.175-5.877Q97.336-6.762 97.336-7.475Q97.336-7.958 97.152-8.223Q96.968-8.487 96.577-8.487Q96.117-8.487 95.554-8.004Q94.990-7.521 94.358-6.716Q93.725-5.911 93.093-4.968Q92.460-4.025 91.908-3.116Q91.356-2.208 90.965-1.518Q90.436-0.552 90.126-0.080Q89.815 0.391 89.516 0.391M102.373 0.345Q101.844 0.345 101.281-0.023Q100.717-0.391 100.338-0.989Q99.958-1.587 99.958-2.185Q99.958-3.450 100.453-4.761Q100.947-6.072 101.798-7.187Q102.649-8.303 103.742-8.993Q104.834-9.683 106.030-9.683Q107.019-9.683 107.525-9.280Q108.031-8.878 108.031-8.257Q108.031-7.521 107.560-6.981Q107.088-6.440 106.306-6.049Q105.524-5.658 104.593-5.405Q103.661-5.152 102.718-4.968Q102.603-4.945 102.534-4.910Q102.465-4.876 102.419-4.761Q102.304-4.370 102.189-3.910Q102.074-3.450 102.051-3.059Q102.051-2.254 102.408-1.760Q102.764-1.265 103.477-1.265Q104.236-1.265 104.788-1.645Q105.340-2.024 105.777-2.484Q106.007-2.737 106.168-2.737Q106.398-2.737 106.398-2.507Q106.398-2.461 106.398-2.392Q106.398-2.323 106.352-2.277Q105.892-1.495 105.294-0.908Q104.696-0.322 103.972 0.012Q103.247 0.345 102.373 0.345M102.879-5.612Q103.224-5.658 103.799-5.819Q104.374-5.980 104.961-6.302Q105.547-6.624 105.961-7.107Q106.375-7.590 106.375-8.280Q106.375-8.556 106.214-8.786Q106.053-9.016 105.754-9.016Q105.294-9.016 104.788-8.648Q104.282-8.280 103.822-7.751Q103.362-7.222 103.063-6.670Q102.764-6.118 102.718-5.750Q102.718-5.589 102.879-5.612M110.354 6.578Q110.262 6.578 110.147 6.521Q110.032 6.463 110.032 6.348Q110.055 6.164 110.262 6.049Q110.469 5.934 110.653 5.888Q111.228 5.773 111.516 5.601Q111.803 5.428 111.987 4.945L116.242-7.291Q116.334-7.567 116.369-7.739Q116.403-7.912 116.323-7.992Q116.242-8.073 116.012-8.027Q115.483-7.935 115.104-7.820Q114.724-7.705 114.241-7.498Q114.057-7.406 113.885-7.452Q113.712-7.498 113.712-7.682Q113.712-7.889 113.850-8.015Q113.988-8.142 114.149-8.211Q114.517-8.395 115.127-8.682Q115.736-8.970 116.633-9.246Q116.794-9.292 116.921-9.407Q117.047-9.522 117.116-9.775Q117.461-10.879 117.852-11.373Q118.243-11.868 118.818-11.868Q119.094-11.868 119.244-11.707Q119.393-11.546 119.301-11.201L118.956-10.005Q118.887-9.775 118.933-9.660Q118.979-9.545 119.071-9.568Q119.370-9.637 119.623-9.660Q119.876-9.683 120.152-9.683Q121.325-9.683 122.038-9.303Q122.751-8.924 123.073-8.245Q123.395-7.567 123.395-6.739Q123.395-5.589 122.877-4.359Q122.360-3.128 121.475-2.058Q120.589-0.989 119.485-0.333Q118.381 0.322 117.185 0.322Q116.909 0.322 116.633 0.173Q116.357 0.023 116.127-0.115Q115.897-0.276 115.759-0.218Q115.621-0.161 115.483 0.276L114.057 4.715Q113.896 5.175 114.160 5.439Q114.425 5.704 115.069 5.796Q115.276 5.819 115.483 5.899Q115.690 5.980 115.690 6.187Q115.690 6.325 115.495 6.383Q115.299 6.440 115.069 6.440Q114.724 6.440 114.287 6.428Q113.850 6.417 113.459 6.417Q113.068 6.417 112.815 6.440Q112.240 6.486 111.619 6.532Q110.998 6.578 110.354 6.578M117.461-0.483Q117.967-0.483 118.611-1.035Q119.255-1.587 119.853-2.484Q120.451-3.381 120.854-4.428Q121.256-5.474 121.256-6.463Q121.256-7.728 120.773-8.211Q120.290-8.694 119.462-8.717Q119.278-8.717 119.094-8.717Q118.910-8.717 118.680-8.671L116.610-2.461Q116.495-2.093 116.484-1.736Q116.472-1.380 116.587-1.127Q116.702-0.828 116.898-0.655Q117.093-0.483 117.461-0.483M125.005 0.322Q124.614 0.322 124.246-0.034Q123.878-0.391 123.878-0.782Q123.878-0.943 123.947-1.127L128.133-13.248Q128.317-13.731 128.317-14.041Q128.317-14.352 128.179-14.582Q128.087-14.743 127.915-14.904Q127.742-15.065 127.512-15.157Q127.351-15.226 127.282-15.318Q127.213-15.410 127.282-15.479Q127.466-15.571 127.696-15.652Q127.926-15.732 128.144-15.801Q128.363-15.870 128.501-15.893Q128.823-15.985 129.306-16.077Q129.789-16.169 130.203-16.227Q130.617-16.284 130.755-16.284Q130.870-16.284 130.951-16.180Q131.031-16.077 131.031-15.893Q131.008-15.755 130.951-15.548Q130.893-15.341 130.824-15.134L126.339-2.323Q126.293-2.162 126.270-2.024Q126.247-1.886 126.247-1.771Q126.247-1.426 126.500-1.426Q126.776-1.426 127.202-1.736Q127.627-2.047 128.053-2.495Q128.478-2.944 128.754-3.312Q128.869-3.450 129.007-3.576Q129.145-3.703 129.214-3.703Q129.329-3.703 129.352-3.599Q129.375-3.496 129.375-3.381Q129.375-2.944 129.065-2.449Q128.754-1.955 128.225-1.460Q127.696-0.966 127.109-0.563Q126.523-0.161 125.960 0.081Q125.396 0.322 125.005 0.322M133.078 0.345Q132.549 0.345 131.986-0.023Q131.422-0.391 131.042-0.989Q130.663-1.587 130.663-2.185Q130.663-3.450 131.157-4.761Q131.652-6.072 132.503-7.187Q133.354-8.303 134.446-8.993Q135.539-9.683 136.735-9.683Q137.724-9.683 138.230-9.280Q138.736-8.878 138.736-8.257Q138.736-7.521 138.264-6.981Q137.793-6.440 137.011-6.049Q136.229-5.658 135.297-5.405Q134.366-5.152 133.423-4.968Q133.308-4.945 133.239-4.910Q133.170-4.876 133.124-4.761Q133.009-4.370 132.894-3.910Q132.779-3.450 132.756-3.059Q132.756-2.254 133.112-1.760Q133.469-1.265 134.182-1.265Q134.941-1.265 135.493-1.645Q136.045-2.024 136.482-2.484Q136.712-2.737 136.873-2.737Q137.103-2.737 137.103-2.507Q137.103-2.461 137.103-2.392Q137.103-2.323 137.057-2.277Q136.597-1.495 135.999-0.908Q135.401-0.322 134.677 0.012Q133.952 0.345 133.078 0.345M133.584-5.612Q133.929-5.658 134.504-5.819Q135.079-5.980 135.666-6.302Q136.252-6.624 136.666-7.107Q137.080-7.590 137.080-8.280Q137.080-8.556 136.919-8.786Q136.758-9.016 136.459-9.016Q135.999-9.016 135.493-8.648Q134.987-8.280 134.527-7.751Q134.067-7.222 133.768-6.670Q133.469-6.118 133.423-5.750Q133.423-5.589 133.584-5.612M140.254 0.322Q139.541 0.322 139.081-0.172Q138.621-0.667 138.621-1.426Q138.621-2.300 138.989-3.346Q139.357-4.393 139.989-5.485Q140.622-6.578 141.450-7.521Q142.393-8.602 143.325-9.188Q144.256-9.775 145.038-9.775Q145.429-9.775 145.716-9.626Q146.004-9.476 146.579-9.108Q146.947-8.878 147.016-8.844Q147.085-8.809 147.062-8.809Q147.154-8.809 147.200-8.993L148.580-13.570Q148.672-13.846 148.706-13.984Q148.741-14.122 148.752-14.156Q148.764-14.191 148.752-14.226Q148.741-14.260 148.741-14.306Q148.741-14.536 148.580-14.708Q148.419-14.881 148.005-15.019Q147.568-15.203 147.476-15.249Q147.384-15.295 147.384-15.364Q147.384-15.525 147.556-15.617Q147.729-15.709 148.143-15.801Q148.465-15.870 148.890-15.950Q149.316-16.031 149.718-16.088Q150.121-16.146 150.431-16.192Q150.742-16.238 150.857-16.238Q151.225-16.238 151.225-15.916Q151.225-15.755 151.202-15.617Q151.179-15.479 151.087-15.249L147.200-2.530Q147.177-2.369 147.142-2.231Q147.108-2.093 147.108-1.955Q147.108-1.541 147.384-1.541Q147.637-1.541 148.028-1.760Q148.419-1.978 148.833-2.334Q149.247-2.691 149.546-3.082Q149.615-3.151 149.638-3.163Q149.661-3.174 149.707-3.174Q149.937-3.174 149.891-2.944Q149.891-2.668 149.615-2.243Q149.339-1.817 148.890-1.380Q148.442-0.943 147.924-0.552Q147.407-0.161 146.912 0.081Q146.418 0.322 146.073 0.322Q145.797 0.322 145.521 0.161Q145.245 0 145.061-0.264Q144.877-0.529 144.877-0.805Q144.877-0.920 144.969-1.380Q145.038-1.633 145.153-2.001Q145.268-2.369 145.383-2.714Q145.498-3.059 145.544-3.220Q145.590-3.381 145.544-3.197Q145.590-3.358 145.521-3.427Q145.452-3.496 145.383-3.381Q143.796-1.403 142.600-0.540Q141.404 0.322 140.254 0.322M141.496-1.173Q142.048-1.173 142.738-1.599Q143.428-2.024 144.095-2.725Q144.762-3.427 145.337-4.278Q145.912-5.129 146.245-5.968Q146.579-6.808 146.579-7.521Q146.579-8.165 146.303-8.533Q146.027-8.901 145.498-8.901Q145.015-8.901 144.382-8.418Q143.750-7.935 143.117-7.153Q142.485-6.371 141.944-5.451Q141.404-4.531 141.070-3.611Q140.737-2.691 140.737-2.001Q140.737-1.541 140.909-1.357Q141.082-1.173 141.496-1.173M153.502 6.670Q152.122 6.670 151.007 6.359Q149.891 6.049 149.236 5.497Q148.580 4.945 148.580 4.186Q148.580 3.611 149.247 3.128Q149.914 2.645 150.949 2.231Q151.984 1.817 153.088 1.472Q153.318 1.403 153.134 1.265Q152.651 0.897 152.317 0.541Q151.984 0.184 151.984-0.207Q151.984-0.598 152.387-0.966Q152.789-1.334 153.387-1.725Q153.502-1.840 153.560-1.909Q153.617-1.978 153.617-2.001Q153.617-2.093 153.410-2.162Q152.973-2.392 152.651-2.703Q152.329-3.013 152.168-3.450Q152.007-3.887 152.007-4.416Q152.007-5.198 152.352-6.095Q152.697-6.992 153.306-7.808Q153.916-8.625 154.790-9.154Q155.664-9.683 156.699-9.683Q157.159-9.683 157.435-9.568Q157.711-9.453 157.918-9.361Q158.148-9.246 158.367-9.154Q158.585-9.062 158.746-9.062Q159.045-9.062 159.447-9.143Q159.850-9.223 160.252-9.292Q160.655-9.361 160.954-9.361Q161.115-9.361 161.310-9.235Q161.506-9.108 161.506-8.809Q161.506-8.395 161.357-8.176Q161.207-7.958 161.023-7.958Q160.816-7.958 160.483-8.015Q160.149-8.073 159.827-8.130Q159.505-8.188 159.298-8.188Q159.183-8.188 159.091-8.130Q158.999-8.073 159.045-7.889Q159.091-7.705 159.102-7.521Q159.114-7.337 159.114-7.130Q159.114-6.233 158.757-5.313Q158.401-4.393 157.780-3.623Q157.159-2.852 156.365-2.381Q155.572-1.909 154.698-1.909Q154.537-1.909 154.376-1.863Q154.215-1.817 154.100-1.725Q153.870-1.449 153.870-1.150Q153.870-0.805 154.100-0.529Q154.330-0.253 154.836 0.092Q155.250 0.368 155.802 0.725Q156.354 1.081 156.906 1.426Q157.458 1.771 157.849 2.047Q158.355 2.415 158.596 2.772Q158.838 3.128 158.838 3.519Q158.838 4.140 158.344 4.704Q157.849 5.267 157.055 5.715Q156.262 6.164 155.331 6.417Q154.399 6.670 153.502 6.670M154.284 5.934Q155.112 5.934 155.675 5.715Q156.239 5.497 156.538 5.141Q156.837 4.784 156.837 4.370Q156.837 4.071 156.642 3.715Q156.446 3.358 155.986 3.105Q155.710 2.898 155.181 2.564Q154.652 2.231 154.353 2.093Q154.008 1.909 153.801 1.909Q153.663 1.909 153.536 1.932Q153.410 1.955 153.272 2.001Q151.984 2.392 151.248 2.886Q150.512 3.381 150.512 4.117Q150.512 4.623 151.030 5.026Q151.547 5.428 152.398 5.681Q153.249 5.934 154.284 5.934M154.514-2.599Q154.928-2.576 155.353-2.978Q155.779-3.381 156.181-4.025Q156.584-4.669 156.894-5.405Q157.205-6.141 157.389-6.831Q157.573-7.521 157.573-7.958Q157.573-8.349 157.366-8.671Q157.159-8.993 156.837-8.993Q156.423-8.993 155.998-8.625Q155.572-8.257 155.169-7.647Q154.767-7.038 154.445-6.325Q154.123-5.612 153.928-4.910Q153.732-4.209 153.732-3.657Q153.732-3.197 153.974-2.898Q154.215-2.599 154.514-2.599M163.484 0.345Q162.955 0.345 162.392-0.023Q161.828-0.391 161.448-0.989Q161.069-1.587 161.069-2.185Q161.069-3.450 161.564-4.761Q162.058-6.072 162.909-7.187Q163.760-8.303 164.852-8.993Q165.945-9.683 167.141-9.683Q168.130-9.683 168.636-9.280Q169.142-8.878 169.142-8.257Q169.142-7.521 168.671-6.981Q168.199-6.440 167.417-6.049Q166.635-5.658 165.703-5.405Q164.772-5.152 163.829-4.968Q163.714-4.945 163.645-4.910Q163.576-4.876 163.530-4.761Q163.415-4.370 163.300-3.910Q163.185-3.450 163.162-3.059Q163.162-2.254 163.518-1.760Q163.875-1.265 164.588-1.265Q165.347-1.265 165.899-1.645Q166.451-2.024 166.888-2.484Q167.118-2.737 167.279-2.737Q167.509-2.737 167.509-2.507Q167.509-2.461 167.509-2.392Q167.509-2.323 167.463-2.277Q167.003-1.495 166.405-0.908Q165.807-0.322 165.083 0.012Q164.358 0.345 163.484 0.345M163.990-5.612Q164.335-5.658 164.910-5.819Q165.485-5.980 166.072-6.302Q166.658-6.624 167.072-7.107Q167.486-7.590 167.486-8.280Q167.486-8.556 167.325-8.786Q167.164-9.016 166.865-9.016Q166.405-9.016 165.899-8.648Q165.393-8.280 164.933-7.751Q164.473-7.222 164.174-6.670Q163.875-6.118 163.829-5.750Q163.829-5.589 163.990-5.612M176.755 0.322Q176.088 0.322 175.501-0.057Q174.915-0.437 174.559-1.092Q174.202-1.748 174.202-2.507Q174.202-3.588 174.639-4.830Q175.076-6.072 175.881-7.176Q176.686-8.280 177.767-8.982Q178.848-9.683 180.136-9.683Q181.424-9.683 182.160-8.867Q182.896-8.050 182.896-6.762Q182.896-5.727 182.470-4.497Q182.045-3.266 181.240-2.173Q180.435-1.081 179.308-0.379Q178.181 0.322 176.755 0.322M177.146-0.437Q177.652-0.437 178.181-0.931Q178.710-1.426 179.204-2.231Q179.699-3.036 180.078-4.002Q180.458-4.968 180.688-5.934Q180.918-6.900 180.918-7.682Q180.918-8.257 180.722-8.591Q180.527-8.924 179.998-8.924Q179.515-8.924 178.986-8.464Q178.457-8.004 177.963-7.234Q177.468-6.463 177.077-5.532Q176.686-4.600 176.456-3.611Q176.226-2.622 176.226-1.725Q176.226-1.058 176.468-0.747Q176.709-0.437 177.146-0.437M181.056 6.670Q179.929 6.670 179.343 6.290Q178.756 5.911 178.756 5.313Q178.756 4.899 179.101 4.566Q179.446 4.232 179.745 4.232Q179.952 4.232 180.148 4.473Q180.343 4.715 180.573 4.991Q180.780 5.267 181.068 5.486Q181.355 5.704 181.769 5.704Q182.160 5.704 182.471 5.439Q182.781 5.175 183.057 4.542Q183.333 3.910 183.655 2.829L186.760-7.843Q186.875-8.257 186.438-8.257L185.012-8.234Q184.828-8.234 184.759-8.326Q184.690-8.418 184.690-8.556Q184.690-8.740 184.851-8.970Q185.012-9.200 185.242-9.223L186.783-9.315Q187.059-9.338 187.174-9.729L187.358-10.419Q187.956-12.558 188.922-13.835Q189.888-15.111 190.958-15.675Q192.027-16.238 192.901-16.238Q193.936-16.238 194.557-15.778Q195.178-15.318 195.178-14.582Q195.178-14.007 194.879-13.639Q194.580-13.271 194.189-13.271Q193.959-13.271 193.810-13.570Q193.660-13.869 193.476-14.283Q193.269-14.743 192.970-15.019Q192.671-15.295 192.188-15.295Q191.613-15.295 191.199-14.950Q190.785-14.605 190.440-13.835Q190.095-13.064 189.704-11.776Q189.566-11.316 189.463-10.902Q189.359-10.488 189.221-10.051Q189.198-9.913 189.163-9.809Q189.129-9.706 189.129-9.591Q189.129-9.453 189.210-9.396Q189.290-9.338 189.405-9.338Q190.072-9.338 190.670-9.373Q191.268-9.407 191.843-9.407Q192.027-9.407 192.027-9.131Q192.027-9.039 191.935-8.855Q191.843-8.671 191.694-8.533Q191.544-8.395 191.383-8.395L189.359-8.349Q189.083-8.349 188.911-8.257Q188.738-8.165 188.692-7.912Q187.910-5.359 187.174-2.737Q186.438-0.115 185.748 2.438Q185.541 3.312 184.978 4.071Q184.414 4.830 183.690 5.417Q182.965 6.003 182.275 6.337Q181.585 6.670 181.056 6.670M196.995 0.322Q196.328 0.322 195.880-0.023Q195.431-0.368 195.431-0.897Q195.431-1.449 195.684-1.760Q195.937-2.070 196.190-2.070Q196.351-2.070 196.547-1.909Q196.742-1.748 196.972-1.541Q197.248-1.311 197.605-1.058Q197.961-0.805 198.444-0.805Q198.973-0.805 199.272-1.173Q199.571-1.541 199.594-2.001Q199.594-2.461 199.364-3.047Q199.134-3.634 198.789-4.186Q198.444-4.738 198.214-5.301Q197.984-5.865 197.984-6.302Q197.984-6.969 198.364-7.567Q198.743-8.165 199.307-8.648Q199.870-9.131 200.422-9.407Q200.974-9.683 201.296-9.683Q201.710-9.683 202.090-9.476Q202.469-9.269 202.722-9.016Q202.975-8.763 202.975-8.556Q202.975-8.372 202.803-8.119Q202.630-7.866 202.400-7.670Q202.170-7.475 201.986-7.475Q201.825-7.475 201.676-7.625Q201.526-7.774 201.365-7.958Q201.204-8.142 200.963-8.291Q200.721-8.441 200.399-8.441Q200.054-8.441 199.813-8.165Q199.571-7.889 199.571-7.475Q199.571-7.291 199.721-6.923Q199.870-6.555 200.077-6.164Q200.284-5.773 200.491-5.428Q200.882-4.830 201.135-4.175Q201.388-3.519 201.388-2.967Q201.388-2.346 200.986-1.760Q200.583-1.173 199.939-0.701Q199.295-0.230 198.525 0.046Q197.754 0.322 196.995 0.322M204.654 0.322Q204.309 0.322 203.999 0.035Q203.688-0.253 203.538-0.632Q203.389-1.012 203.504-1.288L205.827-6.762Q205.988-7.130 206.011-7.383Q206.034-7.636 205.850-7.636Q205.735-7.636 205.436-7.441Q205.137-7.245 204.792-6.969Q204.447-6.693 204.148-6.417Q204.010-6.302 203.861-6.314Q203.711-6.325 203.711-6.440Q203.711-6.578 203.792-6.774Q203.872-6.969 204.033-7.199Q204.654-8.004 205.367-8.556Q206.080-9.108 206.758-9.430Q207.437-9.752 207.897-9.752Q208.081-9.752 208.299-9.556Q208.518-9.361 208.633-9.108Q208.748-8.855 208.633-8.648Q207.989-7.291 207.311-5.761Q206.632-4.232 205.919-2.622Q205.712-2.185 205.689-1.851Q205.666-1.518 205.896-1.518Q206.126-1.518 206.586-1.944Q207.046-2.369 207.621-3.036Q208.196-3.703 208.817-4.439Q209.553-5.267 210.220-6.164Q210.887-7.061 211.405-7.820Q211.922-8.579 212.129-8.947Q212.336-9.315 212.555-9.499Q212.773-9.683 213.003-9.683Q213.233-9.683 213.452-9.499Q213.670-9.315 213.774-9.073Q213.877-8.832 213.785-8.625L211.094-2.162Q210.933-1.817 210.956-1.610Q210.979-1.403 211.163-1.403Q211.416-1.403 211.888-1.713Q212.359-2.024 212.877-2.438Q213.394-2.852 213.716-3.174Q213.762-3.220 213.785-3.220Q213.877-3.220 213.958-3.139Q214.038-3.059 214.038-2.967Q214.038-2.829 213.912-2.656Q213.785-2.484 213.578-2.277Q213.371-2.070 213.130-1.875Q212.888-1.679 212.635-1.530Q212.382-1.380 212.175-1.288Q211.784-0.897 211.290-0.586Q210.795-0.276 210.289-0.138Q209.783 0 209.254-0.069Q209.047-0.092 208.886-0.414Q208.725-0.736 208.840-0.989Q209.116-1.587 209.438-2.277Q209.760-2.967 210.036-3.599Q210.312-4.232 210.473-4.669Q210.565-4.922 210.439-4.945Q210.312-4.968 210.197-4.830Q209.185-3.657 208.346-2.703Q207.506-1.748 206.816-1.081Q206.126-0.414 205.585-0.046Q205.045 0.322 204.654 0.322M216.798 0.368Q216.637 0.368 216.441 0.276Q216.246 0.184 216.096 0.012Q215.947-0.161 215.947-0.345Q215.947-0.598 216.062-0.931Q216.177-1.265 216.361-1.771L218.546-7.452Q218.661-7.728 218.626-7.946Q218.592-8.165 218.362-8.165Q217.994-8.165 217.695-8.050Q217.396-7.935 217.166-7.774Q217.028-7.682 216.890-7.728Q216.752-7.774 216.752-7.958Q216.729-8.234 216.993-8.556Q217.258-8.878 217.672-9.131Q218.017-9.384 218.477-9.534Q218.937-9.683 219.397-9.683Q220.041-9.683 220.248-9.349Q220.455-9.016 220.374-8.453Q220.294-7.889 219.995-7.176L219.006-4.761Q218.914-4.600 219.064-4.554Q219.213-4.508 219.282-4.646Q220.156-6.187 221.041-7.325Q221.927-8.464 222.720-9.108Q223.514-9.752 224.158-9.752Q224.802-9.752 225.089-9.384Q225.377-9.016 225.377-8.487Q225.377-8.004 225.181-7.521Q224.986-7.038 224.675-6.728Q224.365-6.417 224.043-6.417Q223.813-6.417 223.709-6.647Q223.606-6.877 223.560-7.291Q223.537-7.636 223.433-7.877Q223.330-8.119 223.077-8.119Q222.778-8.119 222.387-7.739Q221.996-7.360 221.444-6.555Q221.214-6.233 220.823-5.646Q220.432-5.060 219.995-4.347Q219.558-3.634 219.121-2.921Q218.684-2.208 218.362-1.633Q217.810-0.644 217.465-0.138Q217.120 0.368 216.798 0.368M227.171 0.345Q226.642 0.345 226.078-0.023Q225.515-0.391 225.135-0.989Q224.756-1.587 224.756-2.185Q224.756-3.450 225.250-4.761Q225.745-6.072 226.596-7.187Q227.447-8.303 228.539-8.993Q229.632-9.683 230.828-9.683Q231.817-9.683 232.323-9.280Q232.829-8.878 232.829-8.257Q232.829-7.521 232.357-6.981Q231.886-6.440 231.104-6.049Q230.322-5.658 229.390-5.405Q228.459-5.152 227.516-4.968Q227.401-4.945 227.332-4.910Q227.263-4.876 227.217-4.761Q227.102-4.370 226.987-3.910Q226.872-3.450 226.849-3.059Q226.849-2.254 227.205-1.760Q227.562-1.265 228.275-1.265Q229.034-1.265 229.586-1.645Q230.138-2.024 230.575-2.484Q230.805-2.737 230.966-2.737Q231.196-2.737 231.196-2.507Q231.196-2.461 231.196-2.392Q231.196-2.323 231.150-2.277Q230.690-1.495 230.092-0.908Q229.494-0.322 228.769 0.012Q228.045 0.345 227.171 0.345M227.677-5.612Q228.022-5.658 228.597-5.819Q229.172-5.980 229.758-6.302Q230.345-6.624 230.759-7.107Q231.173-7.590 231.173-8.280Q231.173-8.556 231.012-8.786Q230.851-9.016 230.552-9.016Q230.092-9.016 229.586-8.648Q229.080-8.280 228.620-7.751Q228.160-7.222 227.861-6.670Q227.562-6.118 227.516-5.750Q227.516-5.589 227.677-5.612M234.370 0.322Q234.140 0.322 233.875 0.138Q233.611-0.046 233.438-0.287Q233.266-0.529 233.266-0.713Q233.266-1.035 233.346-1.276Q233.427-1.518 233.565-1.886L235.750-7.912Q235.819-8.142 235.727-8.223Q235.635-8.303 235.497-8.303L234.531-8.349Q234.186-8.372 234.117-8.498Q234.048-8.625 234.048-8.717Q234.048-8.763 234.174-8.912Q234.301-9.062 234.508-9.211Q234.715-9.361 234.945-9.361L235.888-9.361Q236.164-9.361 236.267-9.453Q236.371-9.545 236.509-9.821L237.084-11.017Q237.222-11.247 237.486-11.523Q237.751-11.799 238.050-11.995Q238.349-12.190 238.510-12.190Q238.763-12.190 238.832-11.902Q238.901-11.615 238.809-11.339L238.234-9.729Q238.165-9.499 238.245-9.441Q238.326-9.384 238.533-9.384Q238.947-9.384 239.384-9.315Q239.821-9.246 240.166-9.200Q240.580-9.131 240.672-9.039Q240.764-8.947 240.764-8.809Q240.764-8.763 240.660-8.636Q240.557-8.510 240.258-8.487Q239.821-8.464 239.418-8.429Q239.016-8.395 238.533-8.372Q238.142-8.349 237.969-8.257Q237.797-8.165 237.728-7.981L235.796-2.645Q235.681-2.300 235.681-2.082Q235.681-1.863 235.796-1.771Q235.911-1.679 236.118-1.679Q236.440-1.679 236.831-1.932Q237.222-2.185 237.601-2.518Q237.981-2.852 238.234-3.105Q238.418-3.289 238.556-3.277Q238.694-3.266 238.694-3.174Q238.740-3.059 238.682-2.886Q238.625-2.714 238.510-2.530Q238.234-2.162 237.843-1.760Q237.452-1.357 236.980-0.978Q236.509-0.598 236.026-0.310Q235.543-0.023 235.117 0.150Q234.692 0.322 234.370 0.322M238.786 6.670Q238.349 6.670 237.935 6.383Q237.521 6.095 237.521 5.520Q237.521 5.175 237.682 4.876Q237.843 4.577 238.084 4.381Q238.326 4.186 238.602 4.186Q238.832 4.186 239.027 4.324Q239.223 4.462 239.430 4.623Q239.637 4.784 239.844 4.910Q240.051 5.037 240.327 5.037Q241.086 5.037 241.902 4.128Q242.719 3.220 243.363 1.840Q243.869 0.782 244.053-0.494Q244.237-1.771 244.237-3.289Q244.237-5.060 243.995-6.106Q243.754-7.153 243.455-7.625Q243.156-8.096 242.926-8.096Q242.719-8.096 242.454-7.820Q242.190-7.544 241.971-7.187Q241.753-6.831 241.661-6.578Q241.638-6.463 241.500-6.210Q241.362-5.957 241.224-5.957Q241.132-5.957 241.074-6.152Q241.017-6.348 241.017-6.601Q241.017-7.176 241.270-7.716Q241.523-8.257 241.925-8.717Q242.328-9.177 242.799-9.453Q243.271-9.729 243.708-9.729Q244.306-9.729 244.685-9.315Q245.065-8.901 245.318-8.119Q245.640-7.130 245.881-5.635Q246.123-4.140 246.008-1.840Q245.985-1.426 246.088-1.449Q246.192-1.472 246.353-1.771Q247.135-3.243 247.641-5.129Q248.147-7.015 248.124-9.384Q248.124-9.522 248.342-9.694Q248.561-9.867 248.676-9.867Q248.814-9.867 249.055-9.717Q249.297-9.568 249.492-9.303Q249.688-9.039 249.688-8.694Q249.688-7.268 248.940-5.348Q248.193-3.427 246.847-1.276Q245.502 0.874 243.731 2.990Q242.880 3.979 241.994 4.819Q241.109 5.658 240.281 6.164Q239.453 6.670 238.786 6.670M249.067 3.220Q248.883 3.220 248.745 3.174Q248.607 3.128 248.630 2.990Q248.653 2.852 248.825 2.772Q248.998 2.691 249.251 2.576Q249.895 2.300 250.389 1.909Q250.884 1.518 251.160 1.058Q251.436 0.598 251.436 0.138Q251.436-0.230 251.206-0.402Q250.976-0.575 250.700-0.690Q250.447-0.828 250.240-1.012Q250.033-1.196 250.033-1.541Q250.033-2.047 250.481-2.403Q250.930-2.760 251.482-2.760Q252.172-2.760 252.655-2.312Q253.138-1.863 253.138-1.012Q253.138-0.207 252.770 0.575Q252.402 1.357 251.781 1.932Q251.160 2.507 250.447 2.864Q249.734 3.220 249.067 3.220M262.867 6.670Q261.487 6.670 260.371 6.359Q259.256 6.049 258.600 5.497Q257.945 4.945 257.945 4.186Q257.945 3.611 258.612 3.128Q259.279 2.645 260.314 2.231Q261.349 1.817 262.453 1.472Q262.683 1.403 262.499 1.265Q262.016 0.897 261.682 0.541Q261.349 0.184 261.349-0.207Q261.349-0.598 261.751-0.966Q262.154-1.334 262.752-1.725Q262.867-1.840 262.924-1.909Q262.982-1.978 262.982-2.001Q262.982-2.093 262.775-2.162Q262.338-2.392 262.016-2.703Q261.694-3.013 261.533-3.450Q261.372-3.887 261.372-4.416Q261.372-5.198 261.717-6.095Q262.062-6.992 262.671-7.808Q263.281-8.625 264.155-9.154Q265.029-9.683 266.064-9.683Q266.524-9.683 266.800-9.568Q267.076-9.453 267.283-9.361Q267.513-9.246 267.731-9.154Q267.950-9.062 268.111-9.062Q268.410-9.062 268.812-9.143Q269.215-9.223 269.617-9.292Q270.020-9.361 270.319-9.361Q270.480-9.361 270.675-9.235Q270.871-9.108 270.871-8.809Q270.871-8.395 270.721-8.176Q270.572-7.958 270.388-7.958Q270.181-7.958 269.847-8.015Q269.514-8.073 269.192-8.130Q268.870-8.188 268.663-8.188Q268.548-8.188 268.456-8.130Q268.364-8.073 268.410-7.889Q268.456-7.705 268.467-7.521Q268.479-7.337 268.479-7.130Q268.479-6.233 268.122-5.313Q267.766-4.393 267.145-3.623Q266.524-2.852 265.730-2.381Q264.937-1.909 264.063-1.909Q263.902-1.909 263.741-1.863Q263.580-1.817 263.465-1.725Q263.235-1.449 263.235-1.150Q263.235-0.805 263.465-0.529Q263.695-0.253 264.201 0.092Q264.615 0.368 265.167 0.725Q265.719 1.081 266.271 1.426Q266.823 1.771 267.214 2.047Q267.720 2.415 267.961 2.772Q268.203 3.128 268.203 3.519Q268.203 4.140 267.708 4.704Q267.214 5.267 266.420 5.715Q265.627 6.164 264.695 6.417Q263.764 6.670 262.867 6.670M263.649 5.934Q264.477 5.934 265.040 5.715Q265.604 5.497 265.903 5.141Q266.202 4.784 266.202 4.370Q266.202 4.071 266.006 3.715Q265.811 3.358 265.351 3.105Q265.075 2.898 264.546 2.564Q264.017 2.231 263.718 2.093Q263.373 1.909 263.166 1.909Q263.028 1.909 262.901 1.932Q262.775 1.955 262.637 2.001Q261.349 2.392 260.613 2.886Q259.877 3.381 259.877 4.117Q259.877 4.623 260.394 5.026Q260.912 5.428 261.763 5.681Q262.614 5.934 263.649 5.934M263.879-2.599Q264.293-2.576 264.718-2.978Q265.144-3.381 265.546-4.025Q265.949-4.669 266.259-5.405Q266.570-6.141 266.754-6.831Q266.938-7.521 266.938-7.958Q266.938-8.349 266.731-8.671Q266.524-8.993 266.202-8.993Q265.788-8.993 265.362-8.625Q264.937-8.257 264.534-7.647Q264.132-7.038 263.810-6.325Q263.488-5.612 263.292-4.910Q263.097-4.209 263.097-3.657Q263.097-3.197 263.338-2.898Q263.580-2.599 263.879-2.599M271.860 0.322Q271.423 0.322 271.101 0.012Q270.779-0.299 270.779-0.621Q270.779-0.713 270.802-0.816Q270.825-0.920 270.871-1.035Q271.722-2.783 272.343-4.381Q272.964-5.980 273.470-7.268Q273.562-7.498 273.355-7.498Q273.240-7.498 272.929-7.383Q272.619-7.268 272.285-7.072Q271.952-6.877 271.699-6.693Q271.515-6.578 271.388-6.635Q271.262-6.693 271.262-6.831Q271.262-6.969 271.480-7.222Q271.699-7.475 272.078-7.797Q272.458-8.119 272.941-8.464Q273.424-8.809 273.941-9.120Q274.459-9.430 274.965-9.637Q275.218-9.752 275.482-9.602Q275.747-9.453 275.896-9.211Q276.046-8.970 275.977-8.809L273.263-2.254Q273.194-2.116 273.159-1.966Q273.125-1.817 273.125-1.702Q273.125-1.564 273.228-1.518Q273.332-1.472 273.424-1.472Q273.700-1.472 274.125-1.760Q274.551-2.047 275.022-2.473Q275.494-2.898 275.885-3.289Q275.931-3.358 275.977-3.358Q276.046-3.358 276.115-3.300Q276.184-3.243 276.184-3.151Q276.184-2.783 275.724-2.196Q275.264-1.610 274.574-1.035Q273.884-0.460 273.159-0.069Q272.435 0.322 271.860 0.322M276.345-11.730Q275.931-11.730 275.666-12.040Q275.402-12.351 275.402-12.765Q275.402-13.386 275.839-13.880Q276.276-14.375 276.920-14.375Q277.357-14.375 277.598-14.007Q277.840-13.639 277.840-13.225Q277.840-12.650 277.403-12.190Q276.966-11.730 276.345-11.730M280.278 0.322Q279.634 0.322 279.185-0.115Q278.737-0.552 278.599-1.242Q278.461-1.932 278.737-2.691L280.209-6.624Q280.370-7.061 280.347-7.279Q280.324-7.498 280.117-7.498Q279.933-7.498 279.530-7.199Q279.128-6.900 278.829-6.578Q278.691-6.440 278.599-6.394Q278.507-6.348 278.461-6.348Q278.254-6.348 278.254-6.509Q278.254-6.647 278.334-6.819Q278.415-6.992 278.599-7.245Q278.990-7.774 279.450-8.223Q279.910-8.671 280.370-9.016Q280.830-9.361 281.244-9.556Q281.658-9.752 281.957-9.752Q282.187-9.752 282.382-9.579Q282.578-9.407 282.681-9.188Q282.785-8.970 282.716-8.763L280.738-2.875Q280.485-2.093 280.657-1.645Q280.830-1.196 281.428-1.196Q282.141-1.196 282.865-1.656Q283.590-2.116 284.199-2.886Q284.809-3.657 285.177-4.554Q285.545-5.451 285.545-6.348Q285.545-6.808 285.372-7.199Q285.200-7.590 284.924-7.889Q284.740-8.096 284.659-8.280Q284.579-8.464 284.579-8.694Q284.579-8.901 284.855-9.143Q285.131-9.384 285.510-9.568Q285.890-9.752 286.212-9.752Q286.511-9.752 286.741-9.326Q286.971-8.901 286.971-8.050Q286.971-7.038 286.695-6.049Q286.419-5.060 285.878-4.094Q285.338-3.128 284.510-2.231Q283.452-1.012 282.359-0.345Q281.267 0.322 280.278 0.322M289.892 0.345Q289.363 0.345 288.799-0.023Q288.236-0.391 287.856-0.989Q287.477-1.587 287.477-2.185Q287.477-3.450 287.971-4.761Q288.466-6.072 289.317-7.187Q290.168-8.303 291.260-8.993Q292.353-9.683 293.549-9.683Q294.538-9.683 295.044-9.280Q295.550-8.878 295.550-8.257Q295.550-7.521 295.078-6.981Q294.607-6.440 293.825-6.049Q293.043-5.658 292.111-5.405Q291.180-5.152 290.237-4.968Q290.122-4.945 290.053-4.910Q289.984-4.876 289.938-4.761Q289.823-4.370 289.708-3.910Q289.593-3.450 289.570-3.059Q289.570-2.254 289.926-1.760Q290.283-1.265 290.996-1.265Q291.755-1.265 292.307-1.645Q292.859-2.024 293.296-2.484Q293.526-2.737 293.687-2.737Q293.917-2.737 293.917-2.507Q293.917-2.461 293.917-2.392Q293.917-2.323 293.871-2.277Q293.411-1.495 292.813-0.908Q292.215-0.322 291.490 0.012Q290.766 0.345 289.892 0.345M290.398-5.612Q290.743-5.658 291.318-5.819Q291.893-5.980 292.479-6.302Q293.066-6.624 293.480-7.107Q293.894-7.590 293.894-8.280Q293.894-8.556 293.733-8.786Q293.572-9.016 293.273-9.016Q292.813-9.016 292.307-8.648Q291.801-8.280 291.341-7.751Q290.881-7.222 290.582-6.670Q290.283-6.118 290.237-5.750Q290.237-5.589 290.398-5.612M297.275 0.345Q297.114 0.345 296.930 0.230Q296.746 0.115 296.596-0.080Q296.447-0.276 296.378-0.517Q296.309-0.759 296.424-0.966L298.954-7.245Q299.322-8.096 298.908-8.096Q298.724-8.096 298.448-8.050Q298.172-8.004 297.850-7.797Q297.528-7.590 297.160-7.130Q297.068-7.038 296.941-7.050Q296.815-7.061 296.769-7.222Q296.769-7.383 296.872-7.625Q296.976-7.866 297.125-8.107Q297.275-8.349 297.390-8.487Q297.804-9.016 298.459-9.338Q299.115-9.660 300.012-9.683Q300.380-9.683 300.621-9.488Q300.863-9.292 300.955-8.993Q301.047-8.694 300.909-8.349L299.506-4.738Q299.437-4.577 299.575-4.554Q299.713-4.531 299.782-4.669Q300.679-6.210 301.599-7.337Q302.519-8.464 303.404-9.073Q304.290-9.683 305.072-9.683Q305.693-9.683 306.072-9.280Q306.452-8.878 306.521-8.268Q306.590-7.659 306.291-6.923L304.313-2.254Q303.968-1.472 304.405-1.472Q304.635-1.472 304.991-1.656Q305.348-1.840 305.704-2.093Q306.061-2.346 306.348-2.576Q306.636-2.806 306.728-2.898Q306.797-2.944 306.843-2.990Q306.889-3.036 306.935-3.036Q307.004-3.036 307.073-2.967Q307.142-2.898 307.142-2.806Q307.142-2.530 306.981-2.300Q306.337-1.564 305.601-0.966Q304.865-0.368 304.083-0.023Q303.301 0.322 302.542 0.322Q302.312 0.322 302.070 0.161Q301.829 0 301.702-0.253Q301.576-0.506 301.691-0.759Q302.381-2.369 303.105-3.933Q303.830-5.497 304.451-7.107Q304.750-7.866 304.658-8.188Q304.566-8.510 304.267-8.533Q303.991-8.533 303.646-8.280Q303.301-8.027 302.875-7.567Q302.450-7.107 301.990-6.509Q301.737-6.187 301.311-5.543Q300.886-4.899 300.357-4.071Q299.828-3.243 299.287-2.346Q298.747-1.449 298.264-0.621Q298.011-0.161 297.769 0.092Q297.528 0.345 297.275 0.345M314.663 0.322Q314.226 0.322 313.904 0.012Q313.582-0.299 313.582-0.621Q313.582-0.713 313.605-0.816Q313.628-0.920 313.674-1.035Q314.525-2.783 315.146-4.381Q315.767-5.980 316.273-7.268Q316.365-7.498 316.158-7.498Q316.043-7.498 315.732-7.383Q315.422-7.268 315.088-7.072Q314.755-6.877 314.502-6.693Q314.318-6.578 314.191-6.635Q314.065-6.693 314.065-6.831Q314.065-6.969 314.284-7.222Q314.502-7.475 314.881-7.797Q315.261-8.119 315.744-8.464Q316.227-8.809 316.744-9.120Q317.262-9.430 317.768-9.637Q318.021-9.752 318.285-9.602Q318.550-9.453 318.700-9.211Q318.849-8.970 318.780-8.809L316.066-2.254Q315.997-2.116 315.962-1.966Q315.928-1.817 315.928-1.702Q315.928-1.564 316.031-1.518Q316.135-1.472 316.227-1.472Q316.503-1.472 316.928-1.760Q317.354-2.047 317.825-2.473Q318.297-2.898 318.688-3.289Q318.734-3.358 318.780-3.358Q318.849-3.358 318.918-3.300Q318.987-3.243 318.987-3.151Q318.987-2.783 318.527-2.196Q318.067-1.610 317.377-1.035Q316.687-0.460 315.962-0.069Q315.238 0.322 314.663 0.322M319.148-11.730Q318.734-11.730 318.469-12.040Q318.205-12.351 318.205-12.765Q318.205-13.386 318.642-13.880Q319.079-14.375 319.723-14.375Q320.160-14.375 320.401-14.007Q320.643-13.639 320.643-13.225Q320.643-12.650 320.206-12.190Q319.769-11.730 319.148-11.730M321.931 0.345Q321.770 0.345 321.586 0.230Q321.402 0.115 321.252-0.080Q321.103-0.276 321.034-0.517Q320.965-0.759 321.080-0.966L323.610-7.245Q323.978-8.096 323.564-8.096Q323.380-8.096 323.104-8.050Q322.828-8.004 322.506-7.797Q322.184-7.590 321.816-7.130Q321.724-7.038 321.597-7.050Q321.471-7.061 321.425-7.222Q321.425-7.383 321.528-7.625Q321.632-7.866 321.781-8.107Q321.931-8.349 322.046-8.487Q322.460-9.016 323.115-9.338Q323.771-9.660 324.668-9.683Q325.036-9.683 325.277-9.488Q325.519-9.292 325.611-8.993Q325.703-8.694 325.565-8.349L324.162-4.738Q324.093-4.577 324.231-4.554Q324.369-4.531 324.438-4.669Q325.335-6.210 326.255-7.337Q327.175-8.464 328.060-9.073Q328.946-9.683 329.728-9.683Q330.349-9.683 330.728-9.280Q331.108-8.878 331.177-8.268Q331.246-7.659 330.947-6.923L328.969-2.254Q328.624-1.472 329.061-1.472Q329.291-1.472 329.647-1.656Q330.004-1.840 330.360-2.093Q330.717-2.346 331.004-2.576Q331.292-2.806 331.384-2.898Q331.453-2.944 331.499-2.990Q331.545-3.036 331.591-3.036Q331.660-3.036 331.729-2.967Q331.798-2.898 331.798-2.806Q331.798-2.530 331.637-2.300Q330.993-1.564 330.257-0.966Q329.521-0.368 328.739-0.023Q327.957 0.322 327.198 0.322Q326.968 0.322 326.726 0.161Q326.485 0 326.358-0.253Q326.232-0.506 326.347-0.759Q327.037-2.369 327.761-3.933Q328.486-5.497 329.107-7.107Q329.406-7.866 329.314-8.188Q329.222-8.510 328.923-8.533Q328.647-8.533 328.302-8.280Q327.957-8.027 327.531-7.567Q327.106-7.107 326.646-6.509Q326.393-6.187 325.967-5.543Q325.542-4.899 325.013-4.071Q324.484-3.243 323.943-2.346Q323.403-1.449 322.920-0.621Q322.667-0.161 322.425 0.092Q322.184 0.345 321.931 0.345M339.342 0.322Q339.112 0.322 338.847 0.138Q338.583-0.046 338.411-0.287Q338.238-0.529 338.238-0.713Q338.238-1.035 338.318-1.276Q338.399-1.518 338.537-1.886L340.722-7.912Q340.791-8.142 340.699-8.223Q340.607-8.303 340.469-8.303L339.503-8.349Q339.158-8.372 339.089-8.498Q339.020-8.625 339.020-8.717Q339.020-8.763 339.147-8.912Q339.273-9.062 339.480-9.211Q339.687-9.361 339.917-9.361L340.860-9.361Q341.136-9.361 341.239-9.453Q341.343-9.545 341.481-9.821L342.056-11.017Q342.194-11.247 342.458-11.523Q342.723-11.799 343.022-11.995Q343.321-12.190 343.482-12.190Q343.735-12.190 343.804-11.902Q343.873-11.615 343.781-11.339L343.206-9.729Q343.137-9.499 343.217-9.441Q343.298-9.384 343.505-9.384Q343.919-9.384 344.356-9.315Q344.793-9.246 345.138-9.200Q345.552-9.131 345.644-9.039Q345.736-8.947 345.736-8.809Q345.736-8.763 345.632-8.636Q345.529-8.510 345.230-8.487Q344.793-8.464 344.390-8.429Q343.988-8.395 343.505-8.372Q343.114-8.349 342.941-8.257Q342.769-8.165 342.700-7.981L340.768-2.645Q340.653-2.300 340.653-2.082Q340.653-1.863 340.768-1.771Q340.883-1.679 341.090-1.679Q341.412-1.679 341.803-1.932Q342.194-2.185 342.573-2.518Q342.953-2.852 343.206-3.105Q343.390-3.289 343.528-3.277Q343.666-3.266 343.666-3.174Q343.712-3.059 343.654-2.886Q343.597-2.714 343.482-2.530Q343.206-2.162 342.815-1.760Q342.424-1.357 341.952-0.978Q341.481-0.598 340.998-0.310Q340.515-0.023 340.089 0.150Q339.664 0.322 339.342 0.322M346.587 0.391Q346.449 0.391 346.288 0.276Q346.127 0.161 346.012-0.011Q345.897-0.184 345.897-0.391Q345.897-0.759 345.978-1.115Q346.058-1.472 346.196-1.955L349.393-12.673Q349.508-13.064 349.612-13.489Q349.715-13.915 349.715-14.168Q349.715-14.421 349.428-14.547Q349.140-14.674 348.841-14.766Q348.680-14.835 348.542-14.893Q348.404-14.950 348.404-15.065Q348.404-15.157 348.496-15.249Q348.588-15.341 348.887-15.456Q349.094-15.525 349.497-15.663Q349.899-15.801 350.359-15.939Q350.819-16.077 351.199-16.169Q351.578-16.261 351.716-16.261Q351.854-16.261 352.015-16.238Q352.176-16.215 352.176-16.008Q352.176-15.778 352.130-15.617Q352.084-15.456 352.038-15.272L348.887-4.830Q348.841-4.669 348.910-4.669Q348.979-4.669 349.048-4.761Q349.991-6.210 351.038-7.348Q352.084-8.487 353.062-9.143Q354.039-9.798 354.798-9.798Q355.626-9.798 356.052-9.258Q356.477-8.717 356.477-7.981Q356.477-6.808 356.086-5.566Q355.695-4.324 355.063-3.197Q354.430-2.070 353.694-1.242Q353.533-1.081 353.200-0.816Q352.866-0.552 352.429-0.299Q351.992-0.046 351.567 0.138Q351.141 0.322 350.842 0.322Q350.635 0.322 350.382 0.173Q350.129 0.023 349.945-0.207Q349.761-0.437 349.761-0.598Q349.761-0.713 349.865-0.908Q349.968-1.104 350.129-1.265Q350.290-1.426 350.451-1.426Q350.658-1.426 350.808-1.334Q350.957-1.242 351.072-1.104Q351.233-0.966 351.382-0.862Q351.532-0.759 351.739-0.759Q352.061-0.759 352.440-1.219Q352.820-1.679 353.177-2.438Q353.533-3.197 353.809-4.094Q354.085-4.991 354.246-5.877Q354.407-6.762 354.407-7.475Q354.407-7.958 354.223-8.223Q354.039-8.487 353.648-8.487Q353.188-8.487 352.625-8.004Q352.061-7.521 351.428-6.716Q350.796-5.911 350.163-4.968Q349.531-4.025 348.979-3.116Q348.427-2.208 348.036-1.518Q347.507-0.552 347.197-0.080Q346.886 0.391 346.587 0.391M359.444 0.345Q358.915 0.345 358.351-0.023Q357.788-0.391 357.409-0.989Q357.029-1.587 357.029-2.185Q357.029-3.450 357.524-4.761Q358.018-6.072 358.869-7.187Q359.720-8.303 360.813-8.993Q361.905-9.683 363.101-9.683Q364.090-9.683 364.596-9.280Q365.102-8.878 365.102-8.257Q365.102-7.521 364.630-6.981Q364.159-6.440 363.377-6.049Q362.595-5.658 361.663-5.405Q360.732-5.152 359.789-4.968Q359.674-4.945 359.605-4.910Q359.536-4.876 359.490-4.761Q359.375-4.370 359.260-3.910Q359.145-3.450 359.122-3.059Q359.122-2.254 359.478-1.760Q359.835-1.265 360.548-1.265Q361.307-1.265 361.859-1.645Q362.411-2.024 362.848-2.484Q363.078-2.737 363.239-2.737Q363.469-2.737 363.469-2.507Q363.469-2.461 363.469-2.392Q363.469-2.323 363.423-2.277Q362.963-1.495 362.365-0.908Q361.767-0.322 361.043 0.012Q360.318 0.345 359.444 0.345M359.950-5.612Q360.295-5.658 360.870-5.819Q361.445-5.980 362.031-6.302Q362.618-6.624 363.032-7.107Q363.446-7.590 363.446-8.280Q363.446-8.556 363.285-8.786Q363.124-9.016 362.825-9.016Q362.365-9.016 361.859-8.648Q361.353-8.280 360.893-7.751Q360.433-7.222 360.134-6.670Q359.835-6.118 359.789-5.750Q359.789-5.589 359.950-5.612M370.806 0.322Q370.530 0.322 370.231 0.161Q369.932 0 369.748-0.241Q369.564-0.483 369.564-0.736Q369.564-1.518 370.059-2.530Q370.553-3.542 371.531-4.750Q372.508-5.957 373.911-7.314Q375.061-8.395 375.878-8.982Q376.694-9.568 377.085-9.568Q377.545-9.568 377.982-9.131Q378.235-8.809 378.224-8.832Q378.212-8.855 378.235-8.855Q378.281-8.855 378.316-8.878Q378.350-8.901 378.373-8.993Q378.649-9.453 378.718-9.579Q378.787-9.706 378.764-9.706Q378.879-9.936 379.132-9.936Q379.385-9.936 379.661-9.832Q379.937-9.729 380.121-9.579Q380.305-9.430 380.305-9.269Q380.305-9.154 380.167-8.809L377.706-2.185Q377.430-1.472 377.982-1.472Q378.350-1.472 378.914-1.875Q379.477-2.277 379.960-2.852Q380.006-2.898 380.052-2.921Q380.098-2.944 380.144-2.944Q380.236-2.944 380.282-2.875Q380.328-2.806 380.328-2.668Q380.328-2.438 379.972-1.932Q379.615-1.426 379.155-1.012Q378.442-0.368 377.729-0.023Q377.016 0.322 376.487 0.322Q376.211 0.322 375.935 0.161Q375.659 0 375.475-0.230Q375.291-0.460 375.291-0.713Q375.291-0.920 375.429-1.242Q375.383-1.150 375.464-1.357Q375.544-1.564 375.717-1.944Q375.889-2.323 376.073-2.737Q376.257-3.151 376.395-3.473Q376.510-3.680 376.476-3.784Q376.441-3.887 376.326-3.749Q374.992-2.277 374.003-1.368Q373.014-0.460 372.255-0.069Q371.496 0.322 370.806 0.322M372.508-1.472Q372.968-1.472 373.911-2.277Q374.854-3.082 376.004-4.439Q376.832-5.405 377.304-6.199Q377.775-6.992 377.775-7.383Q377.775-7.567 377.430-7.866Q377.246-8.004 377.062-8.085Q376.878-8.165 376.763-8.165Q376.349-8.165 375.671-7.751Q374.992-7.337 374.417-6.785Q373.750-6.141 373.152-5.301Q372.554-4.462 372.186-3.645Q371.818-2.829 371.818-2.277Q371.818-1.909 372.002-1.690Q372.186-1.472 372.508-1.472M384.215 6.670Q382.835 6.670 381.720 6.359Q380.604 6.049 379.949 5.497Q379.293 4.945 379.293 4.186Q379.293 3.611 379.960 3.128Q380.627 2.645 381.662 2.231Q382.697 1.817 383.801 1.472Q384.031 1.403 383.847 1.265Q383.364 0.897 383.031 0.541Q382.697 0.184 382.697-0.207Q382.697-0.598 383.100-0.966Q383.502-1.334 384.100-1.725Q384.215-1.840 384.273-1.909Q384.330-1.978 384.330-2.001Q384.330-2.093 384.123-2.162Q383.686-2.392 383.364-2.703Q383.042-3.013 382.881-3.450Q382.720-3.887 382.720-4.416Q382.720-5.198 383.065-6.095Q383.410-6.992 384.020-7.808Q384.629-8.625 385.503-9.154Q386.377-9.683 387.412-9.683Q387.872-9.683 388.148-9.568Q388.424-9.453 388.631-9.361Q388.861-9.246 389.080-9.154Q389.298-9.062 389.459-9.062Q389.758-9.062 390.161-9.143Q390.563-9.223 390.966-9.292Q391.368-9.361 391.667-9.361Q391.828-9.361 392.024-9.235Q392.219-9.108 392.219-8.809Q392.219-8.395 392.070-8.176Q391.920-7.958 391.736-7.958Q391.529-7.958 391.196-8.015Q390.862-8.073 390.540-8.130Q390.218-8.188 390.011-8.188Q389.896-8.188 389.804-8.130Q389.712-8.073 389.758-7.889Q389.804-7.705 389.816-7.521Q389.827-7.337 389.827-7.130Q389.827-6.233 389.471-5.313Q389.114-4.393 388.493-3.623Q387.872-2.852 387.079-2.381Q386.285-1.909 385.411-1.909Q385.250-1.909 385.089-1.863Q384.928-1.817 384.813-1.725Q384.583-1.449 384.583-1.150Q384.583-0.805 384.813-0.529Q385.043-0.253 385.549 0.092Q385.963 0.368 386.515 0.725Q387.067 1.081 387.619 1.426Q388.171 1.771 388.562 2.047Q389.068 2.415 389.310 2.772Q389.551 3.128 389.551 3.519Q389.551 4.140 389.057 4.704Q388.562 5.267 387.769 5.715Q386.975 6.164 386.044 6.417Q385.112 6.670 384.215 6.670M384.997 5.934Q385.825 5.934 386.389 5.715Q386.952 5.497 387.251 5.141Q387.550 4.784 387.550 4.370Q387.550 4.071 387.355 3.715Q387.159 3.358 386.699 3.105Q386.423 2.898 385.894 2.564Q385.365 2.231 385.066 2.093Q384.721 1.909 384.514 1.909Q384.376 1.909 384.250 1.932Q384.123 1.955 383.985 2.001Q382.697 2.392 381.961 2.886Q381.225 3.381 381.225 4.117Q381.225 4.623 381.743 5.026Q382.260 5.428 383.111 5.681Q383.962 5.934 384.997 5.934M385.227-2.599Q385.641-2.576 386.067-2.978Q386.492-3.381 386.895-4.025Q387.297-4.669 387.608-5.405Q387.918-6.141 388.102-6.831Q388.286-7.521 388.286-7.958Q388.286-8.349 388.079-8.671Q387.872-8.993 387.550-8.993Q387.136-8.993 386.711-8.625Q386.285-8.257 385.883-7.647Q385.480-7.038 385.158-6.325Q384.836-5.612 384.641-4.910Q384.445-4.209 384.445-3.657Q384.445-3.197 384.687-2.898Q384.928-2.599 385.227-2.599M394.404 0.322Q393.737 0.322 393.151-0.057Q392.564-0.437 392.207-1.092Q391.851-1.748 391.851-2.507Q391.851-3.588 392.288-4.830Q392.725-6.072 393.530-7.176Q394.335-8.280 395.416-8.982Q396.497-9.683 397.785-9.683Q399.073-9.683 399.809-8.867Q400.545-8.050 400.545-6.762Q400.545-5.727 400.120-4.497Q399.694-3.266 398.889-2.173Q398.084-1.081 396.957-0.379Q395.830 0.322 394.404 0.322M394.795-0.437Q395.301-0.437 395.830-0.931Q396.359-1.426 396.853-2.231Q397.348-3.036 397.728-4.002Q398.107-4.968 398.337-5.934Q398.567-6.900 398.567-7.682Q398.567-8.257 398.371-8.591Q398.176-8.924 397.647-8.924Q397.164-8.924 396.635-8.464Q396.106-8.004 395.611-7.234Q395.117-6.463 394.726-5.532Q394.335-4.600 394.105-3.611Q393.875-2.622 393.875-1.725Q393.875-1.058 394.116-0.747Q394.358-0.437 394.795-0.437M402.569 0.368Q402.408 0.368 402.213 0.276Q402.017 0.184 401.868 0.012Q401.718-0.161 401.718-0.345Q401.718-0.598 401.833-0.931Q401.948-1.265 402.132-1.771L404.317-7.452Q404.432-7.728 404.398-7.946Q404.363-8.165 404.133-8.165Q403.765-8.165 403.466-8.050Q403.167-7.935 402.937-7.774Q402.799-7.682 402.661-7.728Q402.523-7.774 402.523-7.958Q402.500-8.234 402.764-8.556Q403.029-8.878 403.443-9.131Q403.788-9.384 404.248-9.534Q404.708-9.683 405.168-9.683Q405.812-9.683 406.019-9.349Q406.226-9.016 406.146-8.453Q406.065-7.889 405.766-7.176L404.777-4.761Q404.685-4.600 404.834-4.554Q404.984-4.508 405.053-4.646Q405.927-6.187 406.813-7.325Q407.698-8.464 408.492-9.108Q409.285-9.752 409.929-9.752Q410.573-9.752 410.861-9.384Q411.148-9.016 411.148-8.487Q411.148-8.004 410.952-7.521Q410.757-7.038 410.447-6.728Q410.136-6.417 409.814-6.417Q409.584-6.417 409.481-6.647Q409.377-6.877 409.331-7.291Q409.308-7.636 409.204-7.877Q409.101-8.119 408.848-8.119Q408.549-8.119 408.158-7.739Q407.767-7.360 407.215-6.555Q406.985-6.233 406.594-5.646Q406.203-5.060 405.766-4.347Q405.329-3.634 404.892-2.921Q404.455-2.208 404.133-1.633Q403.581-0.644 403.236-0.138Q402.891 0.368 402.569 0.368M411.240 0.322Q410.964 0.322 410.665 0.161Q410.366 0 410.182-0.241Q409.998-0.483 409.998-0.736Q409.998-1.518 410.493-2.530Q410.987-3.542 411.964-4.750Q412.942-5.957 414.345-7.314Q415.495-8.395 416.312-8.982Q417.128-9.568 417.519-9.568Q417.979-9.568 418.416-9.131Q418.669-8.809 418.658-8.832Q418.646-8.855 418.669-8.855Q418.715-8.855 418.750-8.878Q418.784-8.901 418.807-8.993Q419.083-9.453 419.152-9.579Q419.221-9.706 419.198-9.706Q419.313-9.936 419.566-9.936Q419.819-9.936 420.095-9.832Q420.371-9.729 420.555-9.579Q420.739-9.430 420.739-9.269Q420.739-9.154 420.601-8.809L418.140-2.185Q417.864-1.472 418.416-1.472Q418.784-1.472 419.348-1.875Q419.911-2.277 420.394-2.852Q420.440-2.898 420.486-2.921Q420.532-2.944 420.578-2.944Q420.670-2.944 420.716-2.875Q420.762-2.806 420.762-2.668Q420.762-2.438 420.406-1.932Q420.049-1.426 419.589-1.012Q418.876-0.368 418.163-0.023Q417.450 0.322 416.921 0.322Q416.645 0.322 416.369 0.161Q416.093 0 415.909-0.230Q415.725-0.460 415.725-0.713Q415.725-0.920 415.863-1.242Q415.817-1.150 415.897-1.357Q415.978-1.564 416.151-1.944Q416.323-2.323 416.507-2.737Q416.691-3.151 416.829-3.473Q416.944-3.680 416.909-3.784Q416.875-3.887 416.760-3.749Q415.426-2.277 414.437-1.368Q413.448-0.460 412.689-0.069Q411.930 0.322 411.240 0.322M412.942-1.472Q413.402-1.472 414.345-2.277Q415.288-3.082 416.438-4.439Q417.266-5.405 417.738-6.199Q418.209-6.992 418.209-7.383Q418.209-7.567 417.864-7.866Q417.680-8.004 417.496-8.085Q417.312-8.165 417.197-8.165Q416.783-8.165 416.104-7.751Q415.426-7.337 414.851-6.785Q414.184-6.141 413.586-5.301Q412.988-4.462 412.620-3.645Q412.252-2.829 412.252-2.277Q412.252-1.909 412.436-1.690Q412.620-1.472 412.942-1.472"/>
  </g>

  <!-- the claim — IBM Plex Mono -->
  <g transform="translate(335.52000000000004 267)" fill="#93A58C">
    <path d="M6.032 0L6.032-4.452L2.668-4.452L2.668 0L1.044 0L1.044-10.121L2.668-10.121L2.668-5.815L6.032-5.815L6.032-10.121L7.656-10.121L7.656 0M18.850 0L12.470 0L12.470-1.233L14.848-1.233L14.848-8.889L12.470-8.889L12.470-10.121L18.850-10.121L18.850-8.889L16.472-8.889L16.472-1.233L18.850-1.233M25.448-4.089L25.448 0L23.838 0L23.838-10.121L27.623-10.121Q29.073-10.121 29.834-9.309Q30.595-8.497 30.595-7.076Q30.595-5.916 30.030-5.162Q29.464-4.408 28.405-4.234L30.740 0L28.942 0L26.796-4.089L25.448-4.089M25.448-5.394L27.391-5.394Q28.899-5.394 28.899-6.772L28.899-7.395Q28.899-8.773 27.391-8.773L25.448-8.773M41.514 0L35.177 0L35.177-10.121L41.514-10.121L41.514-8.758L36.801-8.758L36.801-5.815L41.340-5.815L41.340-4.452L36.801-4.452L36.801-1.363L41.514-1.363M64.975 0L63.249 0L62.481-2.697L59.262-2.697L58.493 0L56.840 0L59.798-10.121L62.017-10.121L64.975 0M62.176-4.046L60.929-8.482L60.813-8.482L59.566-4.046M73.428 0L70.456-7.787L70.325-7.787L70.325 0L68.904 0L68.904-10.121L70.992-10.121L73.965-2.335L74.095-2.335L74.095-10.121L75.516-10.121L75.516 0M98.904 0L97.179 0L96.410-2.697L93.192-2.697L92.423 0L90.770 0L93.728-10.121L95.947-10.121L98.904 0M96.106-4.046L94.859-8.482L94.743-8.482L93.496-4.046M109.330 0L102.950 0L102.950-1.233L105.328-1.233L105.328-8.889L102.950-8.889L102.950-10.121L109.330-10.121L109.330-8.889L106.952-8.889L106.952-1.233L109.330-1.233M132.748-8.758L129.572-8.758L129.572 0L127.948 0L127.948-8.758L124.773-8.758L124.773-10.121L132.748-10.121M141.752 0L141.752-4.452L138.388-4.452L138.388 0L136.764 0L136.764-10.121L138.388-10.121L138.388-5.815L141.752-5.815L141.752-10.121L143.376-10.121L143.376 0M155.454 0L153.729 0L152.960-2.697L149.742-2.697L148.973 0L147.320 0L150.278-10.121L152.496-10.121L155.454 0M152.656-4.046L151.409-8.482L151.293-8.482L150.046-4.046M166.678-8.758L163.502-8.758L163.502 0L161.878 0L161.878-8.758L158.703-8.758L158.703-10.121L166.678-10.121M185.223 0.174Q183.904 0.174 183.005-0.290Q182.106-0.754 181.525-1.523L182.570-2.523Q183.150-1.827 183.802-1.501Q184.454-1.175 185.281-1.175Q186.238-1.175 186.753-1.610Q187.268-2.045 187.268-2.857Q187.268-3.509 186.891-3.864Q186.514-4.219 185.600-4.379L184.498-4.553Q183.773-4.669 183.280-4.937Q182.787-5.206 182.483-5.575Q182.178-5.945 182.040-6.402Q181.903-6.859 181.903-7.366Q181.903-8.802 182.831-9.548Q183.758-10.295 185.383-10.295Q186.586-10.295 187.434-9.911Q188.282-9.527 188.805-8.831L187.790-7.816Q187.369-8.323 186.796-8.635Q186.224-8.947 185.383-8.947Q184.484-8.947 184.012-8.562Q183.541-8.178 183.541-7.439Q183.541-6.815 183.911-6.460Q184.281-6.105 185.223-5.945L186.296-5.756Q187.659-5.510 188.282-4.763Q188.906-4.017 188.906-2.944Q188.906-2.247 188.667-1.667Q188.428-1.088 187.956-0.681Q187.485-0.276 186.796-0.051Q186.108 0.174 185.223 0.174M200.608-8.758L197.432-8.758L197.432 0L195.808 0L195.808-8.758L192.633-8.758L192.633-10.121L200.608-10.121M212.005 0L210.279 0L209.511-2.697L206.292-2.697L205.523 0L203.870 0L206.828-10.121L209.047-10.121L212.005 0M209.206-4.046L207.959-8.482L207.843-8.482L206.596-4.046M221.575 0L218.863-4.655L217.645-3.132L217.645 0L216.021 0L216.021-10.121L217.645-10.121L217.645-5.278L217.718-5.278L218.950-6.960L221.430-10.121L223.300-10.121L219.965-5.858L223.431 0M233.784 0L227.447 0L227.447-10.121L233.784-10.121L233.784-8.758L229.071-8.758L229.071-5.815L233.610-5.815L233.610-4.452L229.071-4.452L229.071-1.363L233.784-1.363M241.773 0.174Q240.454 0.174 239.555-0.290Q238.656-0.754 238.076-1.523L239.120-2.523Q239.700-1.827 240.352-1.501Q241.005-1.175 241.831-1.175Q242.788-1.175 243.303-1.610Q243.818-2.045 243.818-2.857Q243.818-3.509 243.441-3.864Q243.064-4.219 242.150-4.379L241.048-4.553Q240.323-4.669 239.830-4.937Q239.337-5.206 239.033-5.575Q238.728-5.945 238.590-6.402Q238.453-6.859 238.453-7.366Q238.453-8.802 239.381-9.548Q240.309-10.295 241.933-10.295Q243.136-10.295 243.984-9.911Q244.833-9.527 245.355-8.831L244.340-7.816Q243.919-8.323 243.346-8.635Q242.774-8.947 241.933-8.947Q241.034-8.947 240.562-8.562Q240.091-8.178 240.091-7.439Q240.091-6.815 240.461-6.460Q240.831-6.105 241.773-5.945L242.846-5.756Q244.209-5.510 244.833-4.763Q245.456-4.017 245.456-2.944Q245.456-2.247 245.217-1.667Q244.978-1.088 244.506-0.681Q244.035-0.276 243.346-0.051Q242.658 0.174 241.773 0.174M267.670 0L261.290 0L261.290-1.233L263.668-1.233L263.668-8.889L261.290-8.889L261.290-10.121L267.670-10.121L267.670-8.889L265.292-8.889L265.292-1.233L267.670-1.233M279.777-8.758L276.602-8.758L276.602 0L274.978 0L274.978-8.758L271.803-8.758L271.803-10.121L279.777-10.121M287.013 0.174Q285.693 0.174 284.795-0.290Q283.896-0.754 283.315-1.523L284.360-2.523Q284.940-1.827 285.592-1.501Q286.245-1.175 287.071-1.175Q288.028-1.175 288.543-1.610Q289.058-2.045 289.058-2.857Q289.058-3.509 288.680-3.864Q288.303-4.219 287.390-4.379L286.288-4.553Q285.563-4.669 285.070-4.937Q284.577-5.206 284.272-5.575Q283.968-5.945 283.830-6.402Q283.692-6.859 283.692-7.366Q283.692-8.802 284.620-9.548Q285.548-10.295 287.173-10.295Q288.376-10.295 289.224-9.911Q290.072-9.527 290.594-8.831L289.579-7.816Q289.159-8.323 288.586-8.635Q288.014-8.947 287.173-8.947Q286.274-8.947 285.802-8.562Q285.331-8.178 285.331-7.439Q285.331-6.815 285.701-6.460Q286.070-6.105 287.013-5.945L288.086-5.756Q289.449-5.510 290.072-4.763Q290.696-4.017 290.696-2.944Q290.696-2.247 290.457-1.667Q290.217-1.088 289.746-0.681Q289.275-0.276 288.586-0.051Q287.897 0.174 287.013 0.174M309.720 0.174Q308.763 0.174 308.060-0.181Q307.356-0.536 306.900-1.203Q306.443-1.871 306.226-2.842Q306.008-3.814 306.008-5.061Q306.008-6.293 306.226-7.272Q306.443-8.251 306.900-8.918Q307.356-9.585 308.060-9.940Q308.763-10.295 309.720-10.295Q310.677-10.295 311.380-9.940Q312.084-9.585 312.540-8.918Q312.997-8.251 313.214-7.272Q313.432-6.293 313.432-5.061Q313.432-3.814 313.214-2.842Q312.997-1.871 312.540-1.203Q312.084-0.536 311.380-0.181Q310.677 0.174 309.720 0.174M309.720-1.175Q310.808-1.175 311.257-1.994Q311.707-2.813 311.707-4.219L311.707-5.916Q311.707-7.308 311.257-8.127Q310.808-8.947 309.720-8.947Q308.632-8.947 308.183-8.127Q307.733-7.308 307.733-5.916L307.733-4.205Q307.733-2.813 308.183-1.994Q308.632-1.175 309.720-1.175M319.942 0L317.767 0L317.043-10.121L318.464-10.121L318.826-4.234L318.986-1.639L319.101-1.639L320.247-7.671L321.856-7.671L323.002-1.639L323.118-1.639L323.278-4.234L323.654-10.121L325.017-10.121L324.293 0L322.118 0L321.088-5.858L320.972-5.858M333.558 0L330.586-7.787L330.455-7.787L330.455 0L329.034 0L329.034-10.121L331.122-10.121L334.094-2.335L334.225-2.335L334.225-10.121L335.646-10.121L335.646 0M351.611-10.121L353.235-10.121L353.235-3.901Q353.235-3.277 353.271-2.770Q353.307-2.262 353.481-1.907Q353.655-1.552 354.003-1.363Q354.351-1.175 354.960-1.175Q355.569-1.175 355.917-1.363Q356.265-1.552 356.439-1.907Q356.613-2.262 356.649-2.770Q356.685-3.277 356.685-3.901L356.685-10.121L358.310-10.121L358.310-4.191Q358.310-3.103 358.186-2.284Q358.063-1.465 357.701-0.921Q357.338-0.377 356.678-0.101Q356.019 0.174 354.960 0.174Q353.901 0.174 353.242-0.101Q352.582-0.377 352.220-0.921Q351.857-1.465 351.734-2.284Q351.611-3.103 351.611-4.191M366.183 0.174Q364.864 0.174 363.965-0.290Q363.066-0.754 362.486-1.523L363.530-2.523Q364.110-1.827 364.762-1.501Q365.415-1.175 366.241-1.175Q367.198-1.175 367.713-1.610Q368.228-2.045 368.228-2.857Q368.228-3.509 367.851-3.864Q367.474-4.219 366.560-4.379L365.458-4.553Q364.733-4.669 364.240-4.937Q363.747-5.206 363.442-5.575Q363.138-5.945 363-6.402Q362.863-6.859 362.863-7.366Q362.863-8.802 363.791-9.548Q364.719-10.295 366.343-10.295Q367.546-10.295 368.394-9.911Q369.243-9.527 369.764-8.831L368.750-7.816Q368.329-8.323 367.756-8.635Q367.184-8.947 366.343-8.947Q365.444-8.947 364.972-8.562Q364.501-8.178 364.501-7.439Q364.501-6.815 364.871-6.460Q365.240-6.105 366.183-5.945L367.256-5.756Q368.619-5.510 369.243-4.763Q369.866-4.017 369.866-2.944Q369.866-2.247 369.627-1.667Q369.387-1.088 368.916-0.681Q368.445-0.276 367.756-0.051Q367.067 0.174 366.183 0.174M374.419 0L374.419-10.121L377.435-10.121Q379.378-10.121 380.313-8.831Q381.249-7.540 381.249-5.061Q381.249-2.581 380.313-1.290Q379.378 0 377.435 0L374.419 0M376.029-1.334L377.334-1.334Q378.450-1.334 378.994-2.081Q379.538-2.828 379.538-4.219L379.538-5.902Q379.538-7.294 378.994-8.040Q378.450-8.787 377.334-8.787L376.029-8.787M389.180 0.174Q387.252 0.174 386.316-1.189Q385.381-2.552 385.381-5.061Q385.381-7.569 386.316-8.932Q387.252-10.295 389.180-10.295Q389.920-10.295 390.463-10.099Q391.007-9.904 391.399-9.563Q391.790-9.222 392.058-8.765Q392.327-8.309 392.501-7.787L391.036-7.294Q390.920-7.642 390.775-7.946Q390.630-8.251 390.413-8.468Q390.195-8.686 389.898-8.816Q389.601-8.947 389.166-8.947Q388.093-8.947 387.600-8.127Q387.107-7.308 387.107-5.916L387.107-4.205Q387.107-2.813 387.600-1.994Q388.093-1.175 389.166-1.175Q389.601-1.175 389.898-1.305Q390.195-1.435 390.413-1.653Q390.630-1.871 390.775-2.175Q390.920-2.480 391.036-2.828L392.501-2.335Q392.327-1.812 392.058-1.356Q391.790-0.899 391.399-0.558Q391.007-0.217 390.463-0.022Q389.920 0.174 389.180 0.174M411.510 0.174Q410.553 0.174 409.850-0.181Q409.147-0.536 408.690-1.203Q408.233-1.871 408.016-2.842Q407.798-3.814 407.798-5.061Q407.798-6.293 408.016-7.272Q408.233-8.251 408.690-8.918Q409.147-9.585 409.850-9.940Q410.553-10.295 411.510-10.295Q412.467-10.295 413.170-9.940Q413.874-9.585 414.330-8.918Q414.787-8.251 415.005-7.272Q415.222-6.293 415.222-5.061Q415.222-3.814 415.005-2.842Q414.787-1.871 414.330-1.203Q413.874-0.536 413.170-0.181Q412.467 0.174 411.510 0.174M411.510-1.175Q412.598-1.175 413.047-1.994Q413.497-2.813 413.497-4.219L413.497-5.916Q413.497-7.308 413.047-8.127Q412.598-8.947 411.510-8.947Q410.423-8.947 409.973-8.127Q409.524-7.308 409.524-5.916L409.524-4.205Q409.524-2.813 409.973-1.994Q410.423-1.175 411.510-1.175M424.038 0L421.066-7.787L420.935-7.787L420.935 0L419.514 0L419.514-10.121L421.602-10.121L424.575-2.335L424.705-2.335L424.705-10.121L426.126-10.121L426.126 0M448.630 0L442.250 0L442.250-1.233L444.628-1.233L444.628-8.889L442.250-8.889L442.250-10.121L448.630-10.121L448.630-8.889L446.252-8.889L446.252-1.233L448.630-1.233M460.738-8.758L457.562-8.758L457.562 0L455.938 0L455.938-8.758L452.763-8.758L452.763-10.121L460.738-10.121M467.973 0.174Q466.654 0.174 465.755-0.290Q464.856-0.754 464.276-1.523L465.320-2.523Q465.900-1.827 466.552-1.501Q467.205-1.175 468.031-1.175Q468.988-1.175 469.503-1.610Q470.018-2.045 470.018-2.857Q470.018-3.509 469.641-3.864Q469.264-4.219 468.350-4.379L467.248-4.553Q466.523-4.669 466.030-4.937Q465.537-5.206 465.233-5.575Q464.928-5.945 464.790-6.402Q464.653-6.859 464.653-7.366Q464.653-8.802 465.581-9.548Q466.509-10.295 468.133-10.295Q469.336-10.295 470.184-9.911Q471.033-9.527 471.555-8.831L470.540-7.816Q470.119-8.323 469.546-8.635Q468.974-8.947 468.133-8.947Q467.234-8.947 466.762-8.562Q466.291-8.178 466.291-7.439Q466.291-6.815 466.661-6.460Q467.031-6.105 467.973-5.945L469.046-5.756Q470.409-5.510 471.033-4.763Q471.656-4.017 471.656-2.944Q471.656-2.247 471.417-1.667Q471.178-1.088 470.706-0.681Q470.235-0.276 469.546-0.051Q468.858 0.174 467.973 0.174M489.593 0L487.418 0L486.693-10.121L488.114-10.121L488.476-4.234L488.636-1.639L488.752-1.639L489.897-7.671L491.507-7.671L492.652-1.639L492.768-1.639L492.928-4.234L493.305-10.121L494.668-10.121L493.943 0L491.768 0L490.738-5.858L490.622-5.858M501.990 0.174Q501.033 0.174 500.330-0.181Q499.627-0.536 499.170-1.203Q498.713-1.871 498.496-2.842Q498.278-3.814 498.278-5.061Q498.278-6.293 498.496-7.272Q498.713-8.251 499.170-8.918Q499.627-9.585 500.330-9.940Q501.033-10.295 501.990-10.295Q502.947-10.295 503.650-9.940Q504.354-9.585 504.810-8.918Q505.267-8.251 505.485-7.272Q505.702-6.293 505.702-5.061Q505.702-3.814 505.485-2.842Q505.267-1.871 504.810-1.203Q504.354-0.536 503.650-0.181Q502.947 0.174 501.990 0.174M501.990-1.175Q503.078-1.175 503.527-1.994Q503.977-2.813 503.977-4.219L503.977-5.916Q503.977-7.308 503.527-8.127Q503.078-8.947 501.990-8.947Q500.903-8.947 500.453-8.127Q500.004-7.308 500.004-5.916L500.004-4.205Q500.004-2.813 500.453-1.994Q500.903-1.175 501.990-1.175M511.778-4.089L511.778 0L510.168 0L510.168-10.121L513.953-10.121Q515.403-10.121 516.164-9.309Q516.925-8.497 516.925-7.076Q516.925-5.916 516.360-5.162Q515.794-4.408 514.736-4.234L517.070 0L515.272 0L513.126-4.089L511.778-4.089M511.778-5.394L513.721-5.394Q515.229-5.394 515.229-6.772L515.229-7.395Q515.229-8.773 513.721-8.773L511.778-8.773M526.944 0L524.233-4.655L523.015-3.132L523.015 0L521.391 0L521.391-10.121L523.015-10.121L523.015-5.278L523.087-5.278L524.320-6.960L526.799-10.121L528.670-10.121L525.335-5.858L528.800 0"/>
  </g>
</svg>
