<svg xmlns="http://www.w3.org/2000/svg" viewBox="0 0 100 100" width="100" height="100" role="img" aria-label="ENGYE obol — geometric owl coin"><circle cx="50" cy="50" r="46" fill="#191511" stroke="#B7892C" stroke-width="2"/><circle cx="50" cy="50" r="43" fill="none" stroke="#B7892C" stroke-width="1" stroke-dasharray="2 3"/><circle cx="50" cy="50" r="40" fill="none" stroke="#B7892C" stroke-width="1"/><defs><path id="obol-arc" d="M 17 50 A 33 33 0 0 1 83 50" fill="none"/></defs><text font-family="Cinzel, serif" font-weight="700" font-size="10" fill="#B7892C" letter-spacing="6"><textPath href="#obol-arc" startOffset="50%" text-anchor="middle">Ε Γ Γ Υ Η</textPath></text><g stroke="#B7892C" fill="none" stroke-width="1.75"><circle cx="43" cy="48" r="7"/><circle cx="57" cy="48" r="7"/><circle cx="43" cy="48" r="2.5" fill="#B7892C" stroke="none"/><circle cx="57" cy="48" r="2.5" fill="#B7892C" stroke="none"/><path d="M 47.5 53.5 L 52.5 53.5 L 50 58.5 Z" fill="#B7892C" stroke="none"/><path d="M 38 56 Q 38 74 50 74 Q 62 74 62 56"/><g stroke-width="1.5"><path d="M 43 74 v 5 M 41 74 l -2 4.5 M 45 74 l 2 4.5"/><path d="M 57 74 v 5 M 55 74 l -2 4.5 M 59 74 l 2 4.5"/></g></g></svg>
